<svg width="446" height="287" xmlns="http://www.w3.org/2000/svg"><g fill="none"><path d="M67.31 26.366a22.913 22.913 0 0 1-.416-15.616C68.001 7.316 68.715 3.766 69.6.243h1.107c.98.896.952 2.096 1.007 3.274.332 7.648 7.055 10.938 12.783 9.788 2.971-.597 5.987-.846 8.958.144l-.276.337c-1.107.641-2.313.492-3.481.448a8.105 8.105 0 0 0-5.18 1.327 22.036 22.036 0 0 1-3.458 1.582c-2.257 0-4.46-.271-6.408-1.549-1.106-1.62-2.462-2.71-4.587-2.273a7.265 7.265 0 0 0-1.55.078c-1.576 2.074-.796 4.38-.647 6.636.15 2.256.947 4.324-.559 6.331z" fill="#3D3228"/><path d="M75.687 286.712c-1.107-.895-2.213-1.797-3.32-2.682-1.45-1.155-2.302-2.532-1.754-4.468.797-.398 1.079.316 1.522.692.393.215.603 1.365 1.256.226.885-.464.304-2.24 1.87-2.079.708 1.416.714 3.108 1.727 4.396.913 1.416 1.41-.121 2.102-.304a23.028 23.028 0 0 1 3.592-1.404c1.953-.846 3.779-.791 5.395.768 1.317.94 2.695 1.576 4.355.935 2.429-1.488 4.653-1.914 7.32-.061 1.732 1.205 3.818-.442 5.744-.852a3.14 3.14 0 0 1 1.24-.05c1.04.377 2.113.703 2.833 1.66a3.127 3.127 0 0 1-2.214 1.106c-.907.552-2.025-.15-2.916.503-.863 1.04-2.695.144-3.32 1.659h-1.107c-1.743-1.001-3.292-1.66-5.56-.791-2.032.758-5.28 1.25-6.64.122-2.696-2.212-4.544-.553-6.73.1-1.234.37-2.562 0-3.757.552l-1.638-.028z" fill="#4E4D4D"/><path d="M31.54 278.484c-4.182.962-8.487 1.35-12.61 2.621-.41.127-1.107.232-1.3 0-1.904-2.356-4.184-1.012-6.358-.746-.271.038-.598.166-.814.066-3.187-1.46-6.917-.84-10.032-2.582v-2.212c2.092-2.212 3.763-5.132 7.553-4.496a1.15 1.15 0 0 1 .72-.072c.171 1.786-2.153 1.283-2.435 2.654a1.859 1.859 0 0 1-1.34 1.106c-1.565.498-1.61.553-.768 1.421 1.106.354 2.252.553 3.386.83.581.07 1.156.183 1.721.337a67.14 67.14 0 0 0 14.974-.354c2.523.061 5.052.045 7.304 1.427z" fill="#4E4E4E"/><g opacity=".5"><path d="M180.857 77.789c-2.297 2.532-5.683 3.517-8.162 5.84-2.828 2.653-5.987 3.566-9.407.807-1.107-.907-1.577-.393-1.953.956-.653 2.323-.753 4.811-2.767 6.719-1.538 1.438-2.534 1.582-4.117.293-2.058-1.659-4.062-.984-4.587 1.709-.581 2.953-.758 5.989-1.08 8.986-.066.647-.044 1.338.759 1.581 2.645.791 4.537 2.765 6.546 4.424 3.187 2.66 7.022 3.97 10.652 5.713 1.715.818 2.318 1.72.985 3.318a2.316 2.316 0 0 0-.46 2.554c.554 1.372 1.212 2.765-.365 3.96-.193.143-.254.873-.127.956 1.987 1.344 2.396 4.424 5.406 4.69a6.564 6.564 0 0 1 4.056 2.184c.847.874 1.86 1.62.222 2.82-1.107.797-.498 2.013-.133 3.042 1.516 4.241 3.054 8.471 4.554 12.718.232.664.924 1.56.304 2.063-2.484 2.046-.824 4.197-.31 6.293 1.566 6.398 3.525 12.719 4.638 19.194a42.21 42.21 0 0 0 2.905 9.86c2.434 5.635 1.792 12.083 3.414 18.016a1.139 1.139 0 0 1-.587 1.416c-2.468 1.034-2.114 3.146-2.091 5.165 0 2.212.033 4.424 0 6.636 0 .812.06 1.824-.371 2.4-3.243 4.318-2.662 9.743-4.217 14.549-.968 2.991-1.068 6.11-4.194 7.88-.77.436-.426 1.244-.277 1.996.72 3.572 0 6.73-2.816 9.268-2.048 1.836-1.788 4.728-3.022 6.957a14.864 14.864 0 0 0-1.272 3.317c-.653 2.428-1.721 3.412-3.874 1.35-.642-.609-1.284-.675-1.903.033-1.55 1.77-3.675 3.041-4.388 5.53-.714 2.488-2.767 3.318-5.03 3.727-3.509.658-7.094.973-10.47 2.212-1.389.514-2.7.116-4.05 0a1.106 1.106 0 0 1-.316-.763c.747-3.12 1.782-6.083 3.957-8.577 1.24-1.443 2.092-1.626 3.187-.06.476.78 1.033 1.508 1.66 2.172.526.492 1.035 1.19 1.87.88.836-.31.925-1.106.98-1.842.194-2.555-.039-5.137.647-7.664.288-1.056.41-2.162 1.052-3.103.918-.967 2.047-.58 3.126-.475 1.356.138 2.18-.498 2.297-1.797.171-1.914.592-3.821.398-5.768-.553-5.342 1.145-10.142 3.602-14.754.72-.807.554-1.797.554-2.765.12-2.352.527-4.68 1.211-6.934.554-1.106.41-2.256.46-3.406.354-2.212.553-4.424 1.25-6.548.698-2.123.188-4.39.864-6.542.398-1.266.763-2.289 2.307-2.212 2.108.117 2.269-1.133 1.865-2.693-.72-2.765-2.037-5.364-2.485-8.184-.98-6.121-3.01-11.922-5.162-17.695-.366-1.344-.853-2.65-1.218-3.987-.481-2.212-.498-4.203 1.904-5.447 1.206-.625.874-1.62.348-2.61a69.83 69.83 0 0 1-3.281-6.598c-.598-1.487-1.184-2.941 1.223-3.638 1.533-.443.725-1.626.144-2.439-3.437-4.838-5.8-10.23-8.08-15.666-.475-1.421-.11-2.306 1.511-2.483.792-.088 1.788-.055 1.898-1.167.094-.94-.641-1.454-1.328-1.935a74.802 74.802 0 0 1-8.886-7.338 11.69 11.69 0 0 1-2.96-4.253 3.205 3.205 0 0 1-.145-.763c.045-1.47 1.107-1.94 2.275-2.328 1.167-.387 2.523-.475 3.47-1.985-1.866-.16-3.321-1.05-4.787-1.82-1.185-.735-2.568-1.034-3.807-1.658-.67-.36-1.34-.714-2.031-1.029a105.753 105.753 0 0 1-9.833-6.769 30.416 30.416 0 0 1-3.26-4.302 2.304 2.304 0 0 1-.06-.78c.149-.9.143-1.819.31-2.72a22.33 22.33 0 0 1 1.256-3.644c.63-1.355 1.483-1.532 2.506-.365.554.625.946 1.36 1.494 1.98.77.873 1.433 1.857 2.264-.1.553-1.322 1.505-.431 2.213.133.426.337.813.923 1.4.669.758-.332.509-1.106.426-1.72a22.017 22.017 0 0 1 .553-7.935c.316-1.388.985-2.152 2.53-1.062 3.63 2.566 7.591 2.262 10.662-1.233 2.059-2.345 4.128-4.308 7.194-5.193 1.914-.553 2.661-2.372 3.37-4.12 2.185-5.358 3.436-6.718 8.438-2.676.858.697 1.915 1.106 2.822 1.73 1.151 1.074 3.11 1.085 3.73 2.849z" fill="#D3D3D3"/><path d="M69.689 278.91c-2.966 1.852-4.748 1.62-7.266-.647-1.156-1.04-2.545-1.416-3.934-.105-1.66 1.537-3.32 3.119-5.533.785a.807.807 0 0 1 .498-.912c.254-.15.586-.216.675-.553-.377-.227-.803-.266-1.168-.46-.625-.552-1.24-.215-1.854.045-1.068.1-1.726-.492-2.213-1.327a2.354 2.354 0 0 1-.122-1.19c2.12-6.359 3.47-6.635 8.024-1.796.31.326.553.74 1.046.846 2.163-2.411 2.152-2.395 4.836-.089a25.487 25.487 0 0 0 4.947 3.467c.819.448 1.931.686 2.064 1.936z" fill="#D2D2D2"/><path d="M138.686 13.05c4.98-2.14 10.187.106 15.344-.857 3.32-.619 6.558 1.764 8.151 5.115.974 2.052 2.374 2.998 4.505 2.81 4.105-.36 7.52 2.35 11.515 2.471.437 0 .88.609 1.284.985 4.576 4.252 9.124 8.538 13.74 12.746a2.92 2.92 0 0 1 .89 2.46c0 5.066-.05 10.132 0 15.191 0 2.732-2.042 4.159-3.525 5.967-2.014 2.444-3.613 5.104-4.189 8.295-1.278.492-2.102-.426-2.932-1.056a37.206 37.206 0 0 0-7.504-4.64c-1.964-.857-2.672-2.14-1.472-4.13a9.208 9.208 0 0 0 1.135-5.304c-.194-4.573.448-9.174-.515-13.725a14.155 14.155 0 0 0-.67-2.09c-2.855-6.747-7.564-11.558-14.613-13.908a20.34 20.34 0 0 1-1.467-.647c-5.461-2.726-11.266-4.628-16.844-7.067-.902-.907-2.518-1.056-2.833-2.616z" fill="#D3D3D3"/><path d="M184.62 73.381c-4.245-1.825-8.057-4.368-11.792-7.045-.725-.52-1.743-.967-1.135-2.145.714-1.383 1.87-.951 2.856-.432a113.79 113.79 0 0 0 10.618 5.143c.421.332 1.295 0 1.312.93-1.848.541-1.107 2.421-1.86 3.55z" fill="#D1D1D1"/><path d="M178.085 74.88c-2.358-1.886-4.98-3.423-6.9-5.94a82.22 82.22 0 0 1 12.959 6.012c-.11 1.764-.631 3.102-2.822 2.693-.93-1.095-2.64-1.278-3.237-2.765z" fill="#CDCDCD"/></g><path d="M174.82 36.69a5.428 5.428 0 0 1 1.184 3.319 121.6 121.6 0 0 1 .21 15.948 4.311 4.311 0 0 1-.88 2.549c-1.803 1.969-.647 2.793 1.107 3.473 3.73 1.42 6.563 4.258 9.96 6.248l-.083.133c.095.769-.481.857-1.007.99-3.42-.614-6.147-2.798-9.274-4.092-1.051-.431-2.02-1.239-3.32-.863-.072 1.339.946 1.66 1.621 2.179a64.682 64.682 0 0 0 7.913 5.01c.88.487 1.86.835 2.363 1.808.321.415.957.907.885 1.24-.132.607-.885.215-1.36.33-4.073-.945-7.565-3.2-11.068-4.854 1.356 1.847 4.294 2.389 5.213 5.015-.305.553-.697.824-1.278.338a25.458 25.458 0 0 1-4.98-2.953c-2.386-1.803-3.06-1.626-4.328.99-.488.988-.91 2.008-1.261 3.052-.897 2.693-2.734 4.424-5.479 4.86a4.781 4.781 0 0 0-3.486 2.34 11.945 11.945 0 0 1-5.954 4.728c-2.678.968-5.223 1.216-7.238-1.372-.658-.84-1.5-1.155-1.626.227-.25 2.726-1.107 5.464-.31 8.206.343 1.195.459 2.212-.825 2.804-1.383.647-1.66-.708-2.274-1.388-.354-.381-.515-1.028-1.267-.851-.753.73 1.195 1.968-.42 2.527-1.356.464-2.037-.553-2.707-1.41-.785-1.001-1.472-2.08-2.335-3.318-1.272 1.493-1.261 3.318-2.014 4.822a.554.554 0 0 1-.77-.045c-.763-1.106-.392-2.505-.763-3.721a3.372 3.372 0 0 1 1.03-2.986c1.516-.039 2.644-2.245 4.426-.802.4.435.878.79 1.411 1.045 1.24.84 2.214.481 3.077-.625.553-.608.271-1.388.415-2.08.144-.69.116-1.586 1.223-1.32.094.16.044.37.11.514.117.254.111.26.1.083a8.77 8.77 0 0 1 .11-1.903c.626-3.804 1.462-4.17 4.837-2.112a1.88 1.88 0 0 0 2.153.415c1.267-.089 2.689.553 3.68-.786 2.036-1.808 4.05-3.66 6.595-4.733.598-.255.2-.802.554-1.05 1.36-.648 2.766-1.151 4.133-1.826.952-.221 1.25-.962 1.483-1.797 1.107-4.059 1.71-8.295 4.156-11.895.138-.204 0-.553-.044-.813a1.703 1.703 0 0 1 .525-1.354 6.45 6.45 0 0 0 2.042-2.013 7.003 7.003 0 0 1 2.103-2.29c.98-.945.791-2.178.83-3.356.182-5.287-.288-10.59.299-15.871a1.51 1.51 0 0 1 .603-.713z" fill="#3C2F23"/><path d="M138.686 13.05l2.883 2.069c1.245 1.045 2.767 1.946 1.975 4.003-1.577 2.959-1.283 3.59 1.943 4.17a5.56 5.56 0 1 1 3.32 9.047 11.537 11.537 0 0 1-5.019 3.721c-.59.1-1.168-.228-1.383-.785 0-1.886 1.66-2.765 2.556-4.076 1.92-2.914 1.544-4.097-1.81-5.17-4.083-1.305-4.293-1.532-4.177-5.989.033-1.266-.697-1.548-1.572-1.869-2.838-1.05-5.804-1.709-8.643-2.765-1.24-.448-2.811-.752-2.413-2.72.814-1.2 1.943-.553 2.983-.553.992.118 1.996.118 2.988 0 1.062.05 2.141-.238 3.17.199l3.2.718z" fill="#362A1F"/><path d="M156.598 260.213a36.922 36.922 0 0 0-1.328 10.352c0 1.289 0 2.765-1.433 3.285s-2.12-.885-2.861-1.742c-.946-1.106-1.693-2.356-2.889-4.059-.403 3.401-4 4.75-3.746 8.184.067.874-.625 1.493-1.19 2.102-1.809 1.061-3.823 1.045-5.77.818a16.905 16.905 0 0 0-5.335.326l-3.735 1.908c-.98-1.449 0-2.367.885-3.318 2.977-1.576 6.292-1.028 9.407-1.598-1.942-.11-3.979.957-5.932-.144.554-2.25 2.44-1.189 3.746-1.41 1.788-.304 3.874.553 5.102-1.592.581-.592 1.489-.553 1.87-1.737.648-1.996 2.53-3.24 4.106-4.595a2.043 2.043 0 0 1 2.297-.205c.597.25 1.107 1.106 1.903.426.465-.918-.105-2.389 1.456-2.71.247.264.35.631.276.985.118-.225.187-.472.205-.725.332-1.77.725-3.506 2.213-4.739a.88.88 0 0 1 .753.188z" fill="#414141"/><path d="M129.373 278.412c-.393.973-1.178 1.814-1.046 2.975-.503.387-.98 1.073-1.51 1.106-4.156.315-8.328 1.167-12.467-.166-1.848-1.106-3.149-.188-4.333 1.162-.144 0-.293 0-.443-.034-1.178.133-2.003-.602-2.894-1.172a.553.553 0 0 1-.033-.702c.197-.173.417-.319.653-.432 1.3-.425 1.704-1.526 2.03-2.687.366-1.31 1.14-1.792 2.452-1.217.47.21.902.481 1.35.73 1.489.786 3.143.99 4.743 1.4 1.599.409 2.993-.266 4.426-.697.941-.282 1.838-.775 2.872-.553 1.03.929 1.782-.056 2.623-.382.52.276 1.063-.094 1.594.05a.448.448 0 0 1-.017.62z" fill="#414040"/><path d="M93.455 13.47c.332-.088.841-.077.963-.287.338-.597-.21-.724-.636-.88-1.29-.48-3.448-.298-3.176-2.277.293-2.18 2.512-1.322 3.873-1.455 4.526-.426 8.937.382 13.28 1.66.31.335.345.841.083 1.216-.996.691-1.947.215-2.905-.094-1.245-.608-2.634-.277-3.923-.553-.636.199-1.5-1.156-1.953.293-.283.73-1.03.89-1.56 1.322-.93.647-1.567 1.659-2.684 2.084-.692.056-1.406.144-1.5-.851l.138-.177z" fill="#3D3228"/><path d="M135.488 12.387l-3.36.072a3.322 3.322 0 0 1-2.666.166c-2.48-.946-4.859-.222-7.271.105-1.45-.703-.526-2.173-1.024-3.185.515-2.86 1.162-3.213 3.364-1.604a23.415 23.415 0 0 0 10.957 4.446z" fill="#4C4C4B"/><path d="M115.512 11.89c.063.148.115.301.155.458-.686.962-1.848.714-2.767 1.106-.704.18-1.443.18-2.147 0-1.107-.553-2.49-.763-2.955-2.212v-1.045c2.684.006 5.174.957 7.714 1.692z" fill="#535251"/><path d="M186.479 69.831l-1.312-.929 1.146-.553c2.198.6 4.155 1.867 5.6 3.628-2.407-.133-3.774-1.549-5.434-2.146z" fill="#3C2F23"/><path d="M340.144 234.699c-1.494-4.424-3.613-8.61-5.533-12.852a5.085 5.085 0 0 1 0-4.673c1.959-4.241 3.74-8.565 5.594-12.851h.553c3.558 0 3.514 0 1.965 3.318-1.55 3.318-2.983 6.708-4.488 10.059-.57 1.27-.52 2.73.133 3.96 1.566 3.422 3.065 6.873 4.61 10.307 1.239 2.765 1.25 2.765-1.71 2.765-.404-.006-.753-.022-1.124-.033z" fill="#EAEAEA"/><path d="M277.084 234.71c0-7.692.078-15.384.056-23.077 0-2.637-1.76-4.777-2.346-7.26 3.84-.122 6.026 2.14 6.142 6.995.171 7.189.077 14.333.033 21.506-.017 3.163-2.518 1.371-3.885 1.836zm-32.122-.011a43.52 43.52 0 0 0 .056-30.382c3.934 0 5.904 1.908 6.042 6.476.177 5.8.117 11.613 0 17.408-.038 2.04-1.106 3.87-2.07 5.635-.962 1.764-2.666.63-4.028.863z" fill="#EAEAE9"/><path d="M382.182 234.699c.022-6.692.043-13.38.061-20.068 0-3.827 0-3.827 3.873-3.645v19.753c0 4.031 0 4.031-3.934 3.96zm-54.776-18.785c-1.522.956-3.193.348-4.786.398-1.594.05-1.223-1.278-1.229-2.212-.044-6.387-.055-12.774-.077-19.161 3.934-.072 3.934-.072 3.934 3.965 0 4.938.06 9.876 0 14.814-.06 1.681.481 2.417 2.158 2.196z" fill="#EAEAEA"/><path d="M366.766 222.577c.553-2.687 2.163-4.977 2.346-7.858.238-3.793-1.322-6.979-2.462-10.346 3.906-.122 5.61 1.454 6.086 6.431.266 2.765.283 5.53-.78 8.367-1.018 2.742-2.374 3.91-5.19 3.406z" fill="#EAEAE9"/><path d="M294.83 228.007c-3.873.194-3.873.194-3.873-3.572v-9.843c0-3.794 0-3.794 3.873-3.606a13089 13089 0 0 0 0 17.021z" fill="#EAEAEA"/><path d="M321.314 234.693c0-3.086.155-6.177 0-9.251-.094-2.063.42-3.147 2.672-2.765 1.107.188 2.363-.432 3.403.448-1.66-.21-2.296.492-2.213 2.173.116 1.814 0 3.638 0 5.463.072 4.01.072 4.01-3.862 3.932z" fill="#EAEAE8"/><path d="M234.504 204.893c-4.382 2.178-4.377 2.178-4.388-2.56 0-2.462-.044-4.928-.072-7.394 3.907-.044 3.813-.039 3.946 3.771.077 2.057-.664 4.236.514 6.183z" fill="#EBEAE7"/><path d="M355.699 228.007c-3.968.2-3.846.194-3.934-3.047-.05-1.869.63-2.333 2.373-2.306 4.206.067 8.411-.038 12.617-.071-2.424 1.166-4.98.414-7.493.514-3.574.15-3.58.039-3.574 3.545 0 .453.005.912.01 1.365z" fill="#EAEAEA"/><path d="M306.866 210.887l1.261-6.58h2.457c.554 0 1.052.099 1.29.751.935 2.56-1.44 5.9-4.19 5.857-.27.016-.542-.011-.818-.028z" fill="#EBEBEA"/><path d="M306.927 234.699l1.145-6.581h2.728a1.04 1.04 0 0 1 1.107.94c.653 3.147-1.461 5.69-4.72 5.64h-.26z" fill="#EAEAE9"/><path d="M366.616 234.66c.388-2.172.773-4.343 1.157-6.514.272.002.543-.013.813-.045 2.767-.525 2.955.77 2.612 3.114-.426 2.903-1.66 4.142-4.582 3.445z" fill="#EAEAEA"/><path d="M230.039 234.704c-.067-1.736.376-2.765 2.351-1.692.72.387 1.472.708 2.214 1.056-1.411.996-3.022.592-4.565.636z" fill="#ECEAE1"/><path d="M417.552 234.66c1.439-.658 2.867-1.35 4.333-1.958.836-.348 1.4-.11 1.278.946-1.72 1.15-3.64 1.239-5.61 1.012zm-152.724 0c1.438-.658 2.866-1.35 4.332-1.958.842-.348 1.4-.11 1.279.946-1.721 1.15-3.641 1.239-5.611 1.012z" fill="#ECEAE3"/><path d="M386.16 204.998c-.553.298-1.106.608-1.66.901-1.748.912-2.506.387-2.257-1.576 1.295.238 2.789-.614 3.918.675z" fill="#EBEAE6"/><path d="M423.19 204.876c.1 1.023.112 1.935-1.371 1.272a588.232 588.232 0 0 0-4.167-1.825c1.887-.271 3.702.282 5.539.553z" fill="#EDEAE1"/><path d="M178.085 74.88c1.234.74 2.822 1.067 3.237 2.765-.16.028-.317.077-.465.144l-3.874-2.34c.454-.038.886-.1 1.102-.57z" fill="#3C2F23"/><path d="M104.461 285.053c.841-.934 1.926-.447 2.917-.503a4.645 4.645 0 0 1-2.917.503z" fill="#515050"/><path d="M67.31 26.366c.553-3.837-.692-7.592-.51-11.419.078-1.659.432-2.693 2.319-2.494.405.625.567 1.377.454 2.113-.98 4.59.614 8.914 1.389 13.31.503 2.876 2.927 4.579 4.57 7.25a27.743 27.743 0 0 1-.791-4.49c-.183-1.571.315-2.843 2.147-2.765 1.107.055.98-.426.819-1.106a10.653 10.653 0 0 0-1.881-3.954c-1.467-2.002-3.083-3.871-4.577-5.856-.874-1.156-1.887-2.312-1.156-3.954 2.352-.868 3.785-.166 4.537 2.212a23.446 23.446 0 0 1 8.118 16.59 3.317 3.317 0 0 1-1.455 3.074 8.106 8.106 0 0 0-3.37 5.48 4.837 4.837 0 0 1-.554 1.554c-.437.79-.808 1.841-1.953 1.604-1.145-.238-1.19-1.306-.98-2.212.41-1.858-.525-2.953-1.97-3.838-.553-.332-1.029-.78-1.57-1.106-.997-.603-1.246-2.417-2.585-2.124-1.007.222-1.273 1.715-2.036 2.505-1.594 1.66-2.507 3.871-4.283 5.37-.554.265-1.08.603-1.572-.066a2.432 2.432 0 0 1 .244-2.655c2.246-2.41 4.427-4.877 5.727-7.963a11.12 11.12 0 0 0 .918-5.06z" fill="#362A1F"/><path d="M19.744 238.713c-5.827-5.861-9.917-12.641-11.067-20.969-.631-1.283.265-2.765-.554-4.037-2.274-6.525-2.468-13.272-2.075-20.073.17-4.2.669-8.381 1.494-12.503.708-.752 1.5-1.106 2.485-.503.412.683.478 1.522.177 2.261a17.57 17.57 0 0 0-1.82 7.974c.147 2.8-.039 5.606-.554 8.361.177.376.609-.132.282.04-.116.066-.21 0-.166-.211.15-.697-.686-1.913.952-1.836 1.245 2.489.31 5.193.769 7.77.383 2.141.618 4.307.703 6.48-1.063 3.75.802 6.918 2.042 10.209 1.466 3.583 2.706 7.271 4.847 10.545.736 2.074 2.85 3.462 2.916 5.867a1.228 1.228 0 0 1-.431.625z" fill="#4E4C4C"/><path d="M17.917 121.314c1.578-1.747 3.132-3.517 4.737-5.237a23.083 23.083 0 0 0 5.412-9.638 32.477 32.477 0 0 1 2.523-8.56c.343-.714.321-1.66 1.107-2.096.27.06.497.24.62.486.132 8.738-1.843 16.662-8.776 22.673-.814.702-1.312 1.366-.637 2.577.808 1.449.089 2.604-1.256 3.4a1.207 1.207 0 0 1-1.068-.43c-.548-1.322-1.98-1.93-2.662-3.175z" fill="#3A2E23"/><path d="M31.978 93.173c-.918-4.18 1.107-7.703 2.916-11.06 3.68-6.863 7.747-13.52 11.77-20.206 1.411-2.35 2.95-4.662 5.246-6.299.708 1.14-.205 1.897-.692 2.721-2.213 3.81-4.83 7.377-7.138 11.137-1.007 1.61-1.66 3.423-2.728 4.977a6.003 6.003 0 0 0-1.384 3.628 26.44 26.44 0 0 1-3.724 6.387 8.508 8.508 0 0 0-1.704 3.4c-.498 1.178-.77 2.423-1.173 3.623-.238.713-.166 1.753-1.389 1.692z" fill="#504F4E"/><path d="M43.57 69.367l7.338-11.856c.382-.614 1.03-1.106.98-1.914 1.51-3.18 3.043-6.337 5.6-8.848.785-.447 1.56-1.399 2.39-.06a1.26 1.26 0 0 1-.122.801c-5.124 7.04-8.737 15.07-14.287 21.827a1.915 1.915 0 0 1-1.34.874c-.414-.105-.769-.266-.558-.824z" fill="#3D3228"/><path d="M10.303 170.414l1.887-4.264c0-2.383.841-4.711.554-7.122.14-.7.324-1.392.553-2.068.47-.83 1.04-1.66 2.125-1.3 1.084.36 1.14 1.388 1.178 2.3.067 1.66-.464 3.258-.896 4.845-1.107 3.992-2.977 7.692-4.338 11.585-.332.968-.841 1.858-2.042 1.985-1.223-.348-.863-1.15-.553-1.924.558-1.328 1.256-2.605 1.532-4.037z" fill="#3B2E23"/><path d="M11.427 156.545c.398-7.554.215-15.218 4.327-22.042.27.11.474.339.553.62-.205 2.947-1.66 5.7-1.355 8.73a6.173 6.173 0 0 1-.2 1.229c-.442 1.659-1.106 3.29-.697 5.07.014.281-.013.563-.083.835a29.426 29.426 0 0 0-1.206 4.424c-.16.808 0 1.936-1.345 1.947a.774.774 0 0 1 .006-.813z" fill="#535252"/><path d="M59.695 46.76c-.725-.707-1.455.25-2.185 0 .155-.674 1.488-1.741-.554-1.708-.658 0-1.333.116-1.538-.697a1.686 1.686 0 0 1 .836-1.847 330.32 330.32 0 0 1 4.426-3.097c0 .963.045 1.93.072 2.892.753.775.913 1.825 1.295 2.765a2.046 2.046 0 0 1-2.352 1.693z" fill="#504F4E"/><path d="M10.303 170.414c.554 2.062-1.81 3.605-1.04 5.712.46.326 1.472.127 1.146 1.2-1.854.553-2.474 2.212-3.32 3.705a2.253 2.253 0 0 1-2.944-.592c-.836-1.061.348-1.869.979-2.482a27.748 27.748 0 0 0 5.18-7.543z" fill="#535150"/><path d="M16.988 265.6l1.726-3.213c.554-.725.83-1.66 1.478-2.312.647-.652 1.228-.874 1.66.21-.41 3.24-1.931 5.972-3.951 8.455a2.9 2.9 0 0 1-2.297 1.267 1.567 1.567 0 0 1-.769-.293c-.492-2.002 1.765-2.577 2.153-4.115z" fill="#3F342A"/><path d="M17.917 121.314c1.262.647 2.834.973 2.966 2.81a8.29 8.29 0 0 1-1.19 3.914 31.85 31.85 0 0 0-.636 1.4c-1.106 1.708-.741 4.258-3.038 5.27l-.265-.205c.758-2.157 1.538-4.308 2.263-6.476.553-1.603 2.164-3.262-.47-4.689-.814-.442-.476-1.465.37-2.024z" fill="#545352"/><path d="M16.988 265.6c-.127 1.658-1.467 2.632-2.214 3.942-1.792 1.267-3.558 2.627-5.976 1.737l-.824-.122c2.412-2.82 6.38-3.113 9.014-5.558z" fill="#504F4E"/><path d="M21.487 260.175c-1.904-.493-1.423 2.012-2.767 2.212a87.41 87.41 0 0 0 3.32-11.613.554.554 0 0 1 .77.133c.995 2.129-.693 4.33.182 6.464-.083 1.156.088 2.455-1.505 2.804z" fill="#534E4B"/><path d="M31.978 93.173c1.383-1.615.454-4.17 2.28-5.602 1.804-.47 2.346.852 1.909 1.969-.93 2.377-1.738 4.976-4.172 6.403-.465-.78-.283-1.581-.078-2.383a.27.27 0 0 1 .061-.387z" fill="#3D3125"/><path d="M11.427 156.545l.21.874c.386.21.75.456 1.09.735.256.215.419.52.454.852.797 2.532-.15 4.833-.969 7.15-.498-3.19-1.698-6.315-.785-9.611z" fill="#575554"/><path d="M7.088 181.031c-.077-2.3.476-4.048 3.32-3.87.858 1.238.814 1.454-.63 3.35a3.648 3.648 0 0 1-2.214.598 2.176 2.176 0 0 1-.476-.078z" fill="#392D21"/><path d="M30.894 97.613a49.84 49.84 0 0 1-2.828 8.848c-.553-3.755.952-6.923 2.767-10.01a.868.868 0 0 1 .06 1.162z" fill="#565453"/><path d="M22.604 245.238c.753-2.92-1.444-4.55-2.86-6.525a.719.719 0 0 1 .116-.276 1.373 1.373 0 0 1 1.15-.194c.952.509 1.589 1.388 2.413 2.057.919 1.62 1.068 3.235-.044 4.844a.554.554 0 0 1-.775.094z" fill="#615F5D"/><path d="M22.604 245.238h.504c1.317 1.991.376 3.755-.553 5.53h-.52c-.144-1.874.287-3.694.57-5.53z" fill="#5F5C5A"/><path d="M30.894 97.613c0-.392 0-.785-.045-1.183a6.08 6.08 0 0 1 1.04-2.881c.028.796.056 1.592.078 2.383-.354.564-.714 1.123-1.073 1.681z" fill="#534941"/><path d="M8.134 213.707c1.146 1.211.404 2.688.554 4.037a9.047 9.047 0 0 1-.554-4.037z" fill="#4F4E4E"/><path d="M71.797 280.646l-1.178-1.106-.454-.625c-1.3-1.366-2.335-2.997-4.05-3.942-1.146-.63-1.019-1.538-.526-2.517-1.528-3.566-3.664-6.79-5.534-10.174-.647-1.19-1.81-2.765-.288-3.634 1.273-.724 2.12 1.029 2.839 2.035 1.46 2.024 2.418 4.336 3.52 6.559a36.96 36.96 0 0 0 5.367 8.2c-2.828-5.452-4.726-11.336-7.874-16.639a6.557 6.557 0 0 1-1.046-2.212 3.433 3.433 0 0 1 1.616-3.561c1.317-.89 2.213.077 3.12.896 2.214 2.057 3.144 4.95 4.67 7.449 1.34 2.212 2.397 4.556 3.548 6.862-2.214-5.214-4.388-10.457-7.775-15.074a17.934 17.934 0 0 1-1.483-1.997 1.443 1.443 0 0 1 .282-1.985c.692-.553 1.367-.365 2.015.105.84.614 1.24 1.587 1.875 2.367a43.874 43.874 0 0 1 5.982 11.834c.155-.31-.15-.503-.15-.758-1.554-3.992-3.353-7.84-5.926-11.286-.774-1.255-1.748-2.378-2.495-3.644-.526-.88-.554-1.803.348-2.472 1.035-.78 1.721-.039 2.302.713a42.613 42.613 0 0 1 6.015 10.12 28.63 28.63 0 0 0-6.795-11.773c-.26-.266-.553-.514-.77-.796-.774-.924-1.786-1.892-.492-3.064 1.295-1.172 2.419-.249 3.26.769 1.466 1.77 3.015 3.489 3.934 5.651a6.082 6.082 0 0 0 1.428 2.212c-1.019-3.395-3.005-6.171-5.49-8.66-.946-.94-3.049-1.83-1.582-3.417 1.261-1.377 2.7.177 3.807 1.05 1.505 1.184 2.252 3.025 3.696 4.861-.42-2.908-1.898-4.81-3.204-6.78a2.363 2.363 0 0 0-2.401-1.05c-.453.09-.912.143-1.372.16-1.517-.038-3.63.47-3.874-1.609-.21-1.985 1.843-2.156 3.381-2.455a2.469 2.469 0 0 0 1.489-.553c.177-.553 0-1.2.498-1.659 2.158-1.476 4.133-3.097 4.786-6.116-1.887.719-3.17 2.184-4.903 2.81-1.106.392-2.113.701-3.076-.239-.963-.94-.697-2.007-.139-3.03 3.93-7.156 5.23-14.82 4.577-22.894a16.272 16.272 0 0 1 .105-3.87c.138-.836.37-1.687 1.455-1.698 1.085-.011 1.389.824 1.466 1.659.272 2.92 1.03 5.784 1.04 8.737a7.74 7.74 0 0 1-.824 1.875 8.24 8.24 0 0 0-.127 1.609 36.373 36.373 0 0 1-2.988 11.867c-.172.32.039-.116-.122.21-.072.155-.155.299-.232.448.238.072.127-.2.249-.266.686-1.93 3.032-1.51 4.072-2.925a4.675 4.675 0 0 1 1.207-1.106c1.815-.945 2.816-.392 2.877 1.66.1 3.04-.653 5.982-1.428 9.212 1.6-.32 2.214-1.482 3.138-2.096.924-.614 1.909-1.045 2.805-.299 1.03.858.51 2.14-.226 2.671-3.924 2.832-3.824 6.924-3.968 11.099-.227 6.52-.587 13.034-.896 19.542-.288 6.028.276 12.398-3.597 17.779-.692.957-1.052 2.179-2.291 2.654-1.24.221.764 2.732-1.55 2.212-.53.183-1.073.443-1.643.094z" fill="#35291E"/><path d="M69.689 278.91c-1.727-1.018-3.52-1.93-5.157-3.075-1.638-1.144-3.132-2.516-4.698-3.793-.675.36-.52 1.106-.703 1.659-.52 1.631-1.19 1.554-2.213.331-1.107-1.332-2.419-2.505-3.57-3.81-.874-.995-1.455-.862-2.014.26-.697 1.388-1.444 2.765-2.169 4.12-1.107-1.205-.697-2.527-.293-3.87.476-1.046.863-2.135 1.35-3.18.592-1.272 1.483-1.975 2.955-1.632 1.361.431 1.743 1.598 2.114 2.765.238.78.72 2.024 1.466 1.471 2.684-1.985 4.51.044 6.596 1.029 1.107.608 2.38.94 3.458 1.659-.597.553-1.82.967-.132 1.808 1.687.84 3.165 2.156 3.486 4.258a4.667 4.667 0 0 1-.476 0z" fill="#40403F"/><path d="M53.559 278.423l-.603.52-.73.271c1.748 2.715-.836 2.063-1.943 2.405-3.22.985-6.336 1.007-8.992-1.482-.913-.862-1.361-.27-1.937.42-2.28 2.732-4.012 2.61-6.02-.403a16.968 16.968 0 0 1-.902-1.659c.352-.444.92-.657 1.477-.553.384.06.742.231 1.03.492.453.393.641 1.2 1.505.968.763-.36 1.217-1.106 1.914-1.526 2.241-1.018 4.322-1.106 6.026 1.017.33.31.771.472 1.223.448a6.949 6.949 0 0 0 2.551-.155 2.673 2.673 0 0 0 1.145-.685c.676-1.007-1.245-1.93-.105-2.942.67.475 1.162 1.283 2.158 1.139a1.19 1.19 0 0 1 1.66.15c.714.364 1.66-.31 2.264.464-.41.613-1.362.409-1.721 1.111z" fill="#4E4D4C"/><path d="M34.208 278.401l-1.776.066h-.886l-7.32-.624c-.056-.399.088-.824.453-.869 2.939-.387 5.739-1.825 8.815-1.106.814.68 1.367 1.444.714 2.533z" fill="#3F3F3E"/><path d="M54.704 268.818a4.976 4.976 0 0 0-1.588-2.671c-3.79-3.534-6.06-8.002-7.88-12.758-.348-.912-.282-2.018-1.106-2.726-1.34.526-1.245 2.997-3.32 2.378-1.18-.36-2.767-3.816-2.48-5.53.333-1.996.731-3.981 1.107-5.978 1.82-10.34 4.809-20.4 7.332-30.574-4.172 12.442-7.702 25.061-9.755 38.029-.814 5.148-.864 10.429-1.4 15.616-.382 3.727.171 8.09-3.558 10.855-3.724 1.034-7.56 1.532-11.328 2.34-1.748-.487-1.383-1.66-.852-2.81.814-1.82 2.49-2.765 4.19-3.87-2.585-.924-3.957-.25-5.053 2.626-.824 2.179-2.03 3.677-4.532 3.733-1.605 0-3.005-.255-2.999-2.323.526-2.433 3.049-3.434 4.023-5.53 2.468-.813 3.248-3.091 4.3-5.076a37.588 37.588 0 0 0 1.71-4.352c.594-.833.936-1.82.984-2.843 0-3.837 1.03-7.548 1.295-11.369.393-5.652.398-11.32.659-16.971.282-6.138.193-12.276 1.289-18.36.238-1.332.824-2.941-1.018-3.804-.814-.304-1.03-.995-1.14-1.758.658-2.539.232-5.132 1.41-7.809.991-2.245.847-5.352 1.108-8.084.597-6.769 1.3-13.532 1.837-20.306a1.343 1.343 0 0 0-.642-1.338c.05 5.104-1.013 9.815-1.195 14.615-.083 2.212-.449 4.386-.653 6.58-.078.803-.111 1.837-1.207 1.876-1.095.038-1.145-1.029-1.438-1.77-.46-1.172-.615-2.472-1.605-3.81-.758 2.394.044 4.474-.056 6.525-.038.824.26 1.66.161 2.472-.133 1.073 0 2.45-1.068 2.97s-1.605-.913-2.446-1.438c.127 4.396.332 8.698 3.37 12.243.609.708 1.146 1.714.288 2.466-1.074.935-1.882-.088-2.512-.835a31.52 31.52 0 0 1-3.641-5.187c1.538 2.82 2.766 5.801 4.537 8.483.39.518.677 1.105.847 1.73.188.897 0 1.66-.897 2.091-.896.431-1.416-.138-1.848-.763-1.046-1.52-1.826-3.19-2.722-4.794-.349-.476-.454-1.106-1.107-1.599.436.524.8 1.104 1.079 1.726 2.684 4.612 4.748 9.544 7.487 14.129a3.4 3.4 0 0 1 .337.752c.294 1.028 1.168 2.41.045 3.013-1.268.68-1.732-.9-2.214-1.791-1.959-3.54-4.36-6.808-6.236-10.39-.37-.526-.68-1.107-1.035-1.632.323.656.693 1.288 1.107 1.891a96.536 96.536 0 0 1 4.93 9.196c.554 1.244 1.267 2.461 1.107 3.915-.082.4-.392.712-.791.797-1.201-.36-1.56-1.488-2.037-2.422a22.564 22.564 0 0 0-5.81-7.294c-1.04-3.009-2.767-5.845-2.28-9.23a82.63 82.63 0 0 1-1.14-14.93c-1.106-2.848.045-5.685 0-8.533.3-1.186.498-2.396.592-3.616a4.504 4.504 0 0 1 .465-2.212v-2.262c-.193-1.195 1.107-2.107.631-3.351l-1.107-1.056c.3-.2.78-.338.875-.609 1.947-5.762 5.024-11.153 5.755-17.314.083-.685.415-1.631-.344-2.024-.973-.503-1.388.47-1.859 1.106-.918.078-.94-.613-1.051-1.222 0-1.863.553-3.627 1.057-5.402a1.509 1.509 0 0 0-.033-.553c.017-1.659.203-3.312.553-4.933l.044-1.161c.18-.156.33-.344.443-.553.254-.98-.039-2.013.282-2.986 1.03-3.224 2.009-6.465 3.32-9.59.553-.906.553-2.05 1.2-2.908.554-1.134.803-2.488 1.987-3.257.554-1.217 2.928-2.34-.132-3.705-.698-.31.863-1.725 1.615-2.345 4.305-3.55 6.69-8.24 7.88-13.526.67-2.997.78-6.116 1.146-9.185 1.073-1.83 2.124-3.672 3.226-5.491.824-1.366.747-2.383-.963-2.876a2.653 2.653 0 0 1 .625-2.56c2.153-2.09 3.215-4.872 4.742-7.36.144-1.156.974-1.99 1.417-3.008 1.107-1.516 1.527-3.495 3.093-4.712 3.292-5.026 7.52-9.4 9.96-15.069 1.256-2.964 3.708-5.419 5.622-8.106l2.28-1.582c-.177-1.14-1.007-2.262-.11-3.44l6.712-9.4a15.837 15.837 0 0 0 5.605 5.53c1.472.9 1.406 2.145.913 3.577-.194.553-.509 1.377.349 1.66.857.281 1.106-.615 1.228-1.14.841-3.362 1.981-6.48 5.185-8.4.587-.348.26-1.167.216-1.808a21.962 21.962 0 0 0-5.296-13.332c-.824-.957-1.737-1.908-2.125-3.186l6.585 1.604c3.32.735 6.032 5.441 5.5 9.528-.17 1.333-.691 2.665.371 4.424-.155-3.18 1.323-5.22 2.817-7.283.769-1.056 1.107-2.129-.94-1.974-.715.055-1.445-.183-1.49-.902-.116-1.99-1.787-3.096-2.495-4.739 1.267-1.83 3.182-1.41 4.98-1.448.454.028.904.098 1.345.21 2.13.602 4.316.193 6.463.326.692-.089 1.66.287 1.948-.553.288-.84-.692-.924-1.184-1.26-.493-.338-1.162-.637-1.162-1.422l1.62-.885a27.65 27.65 0 0 1 11.66 2.372c2.983.354 5.976.625 8.948 1.106a6.433 6.433 0 0 0 4.487-.84c.692-.42 1.428-1.333 2.38-.354.802 1.659 2.545 1.631 3.967 2.118a193.14 193.14 0 0 0 8.129 2.555c1.322.387 1.72.824 1.107 2.306-1.179 2.842-.332 4.225 2.678 5.026.614.166 1.256.26 1.87.443 2.833.851 3.575 2.765 1.865 5.203-1.046 1.488-2.363 2.765-3.558 4.175-.133 1.106-1.03 1.737-1.389 2.13.37-.67 1.466-1.04 2.523-1.472 1.179-.857 2.363-1.714 3.53-2.582 2.75-2.035 2.535-4.297 1.323-7.615-.343-.956-1.206-1.305-2.186-1.388-.82-.04-1.636-.13-2.445-.27-1.074-.238-2.214-.482-2.424-1.859-.21-1.377.62-2.212 1.737-2.814 1.472-1.106 2.662.204 3.98.459 5.178 2.173 10.391 4.274 15.42 6.785 3.548 1.852 6.16 4.69 8.506 7.847a17.244 17.244 0 0 1 2.844 11.95c-.326 2.516-.066 5.093-.094 7.648 0 1.177.044 2.388-.89 3.317l-1.572 2.212c-.714.603-1.66.896-2.18 1.764l-.449 1.106c-2.473 4.026-3.115 8.693-4.52 13.09a2.842 2.842 0 0 1-1.207 1.753c-1.267 1.05-2.584 1.957-4.355 1.77-.553-.681-.193-1.278.321-1.66 3.038-2.356 3.757-5.745 4.25-9.251a18.29 18.29 0 0 0-.764 1.659c-2.827 7.454-11.62 11.518-19.317 8.908-3.63-1.233-3.874-2.483-1.068-4.977.597-.553 1.311-.984 1.433-2.001-1.217-.255-1.715.641-2.357 1.194-.764.658-1.411 1.449-2.214 2.052-.962.707-1.887.713-2.672-.25-.786-.961-.233-1.691.448-2.405 1.206-1.266 2.971-1.83 4-3.273-.32-.747-1.626-.553-1.576-1.66.769-1.951 2.927-2.41 4.614-4.29-1.814.17-2.645 1.072-3.502 1.863-1.107.995-2.053 2.14-3.448 2.726-.653.282-1.388.747-2.03.061-.642-.686-.399-1.371-.194-2.096.315-1.106 1.322-1.94 1.577-3.44-2.307.791-3.049 2.49-3.26 4.292-.37 3.086-2.107 4.977-4.692 6.376-8.339 4.468-16.672 8.953-20.955 11.32 4.626-2.644 13.546-6.93 22.173-11.78a7.522 7.522 0 0 1 1.682-.84 1.345 1.345 0 0 1 1.522.327c.509.635.199 1.282-.305 1.708-1.748 1.493-3.148 3.484-5.201 4.518-5.788 2.914-10.619 7.272-16.191 10.507-.891.88-2.064 1.388-2.944 2.278-.553.465-1.19.896-1.787 1.338-.328.285-.68.54-1.052.764-.293.22.321.392 0 .188-.32-.205-.077.066.155-.194.306-.308.65-.576 1.024-.796.586-.448 1.195-.874 1.77-1.344.914-.874 2.065-1.438 3.005-2.278 4.51-2.65 8.516-6.083 13.458-8.085 1.599-.636 2.855-1.996 4.167-3.163a9.712 9.712 0 0 1 3.475-2.212 2.27 2.27 0 0 1 2.667.951c.647.896.387 1.77-.388 2.455-3.718 3.318-6.795 7.283-10.934 10.114-2.042 1.687-4.056 3.407-6.004 5.21 2.003-1.875 4.15-3.567 6.226-5.359 3.58-2.55 7.193-5.065 10.552-7.89 1.787-1.505 3.525-1.582 5.533-.371 2.009 1.21 1.96 3.002 1.45 4.81-.31 1.107 0 2.428-1.03 3.318-.608.907-.475 1.875-.193 2.832.205.708-.1.99-.741 1.106-2.214-.88-.614-3.152-1.66-4.673-1.882 1.371-.875 3.87-2.324 5.259-.758 0-.98-.498-1.107-1.106a5.888 5.888 0 0 0-.393-.713c-.503-.553-.636-1.731-1.621-1.588-.803.117-.73 1.156-1.068 1.77-.216.398-.393.818-.858.995a6.318 6.318 0 0 0-.94 2.893c-.897 8.123-1.362 16.385-7.427 22.877 3.055-2.34 4.82-5.447 5.954-8.975.947-2.931 1.66-3.13 3.918-1.029 3.32 3.097 7.155 5.464 10.735 8.195.78.592 1.998 1.018 1.843 2.212-.172 1.283-1.533 1.051-2.435 1.383-.741.276-1.92 0-2.108.967-.21 1.079.974 1.444 1.699 1.93 1.831 1.228 3.9 2.069 5.627 3.468 1.904 1.482 3.807 2.97 5.633 4.55 1.024 1.41 3.32 1.743 3.36 3.988a1.244 1.244 0 0 1-.477.602c-2.036.63-2.18 1.748-1.106 3.495 2.357 3.871 4.686 7.792 6.053 12.166-1.156 1.25-1.571 2.56-.32 4.01a63.462 63.462 0 0 1 2.063 7.282 5.179 5.179 0 0 0 1.184 4.723c.533.855.714 1.884.504 2.87-.758 1.802-2.451 2.211-4.073 2.427-3.276.503-6.546 1.056-9.838 1.41a13.515 13.515 0 0 1-6.491-.979c-2.767-1.105-3.093-.801-3.276 2.212a6.841 6.841 0 0 0 0 1.66c1.45 7.924-.337 15.101-4.875 21.688-1.605 2.333-2.529 5.126-4.748 6.967 5.656-6.442 11.66-17.601 11.095-26.305a9.439 9.439 0 0 1 .271-3.02c.376-1.454 1.107-2.245 2.767-1.847 5.44 1.31 10.763-.254 16.13-.719.908-.077 1.793-.497 2.667.078.714.83.592 1.93.958 2.875.381 2.55 1.106 5.033 1.726 7.527a23.092 23.092 0 0 0 1.03 3.638c.962 3.55 1.997 7.09 2.766 10.69.32 1.454.448 2.764-.825 4.047a5.229 5.229 0 0 0-1.317 4.878 17.454 17.454 0 0 1-2.578 13.94 28.014 28.014 0 0 0-3.874 10.28 9.227 9.227 0 0 1-2.545 5.093c-2.12 2.09-3.248 4.91-5.146 7.19-.553.685-1.035 1.758-2.114 1.47-1.079-.287-.93-1.449-1.107-2.322-.492-2.284-.487-4.712-2.036-6.697a79.459 79.459 0 0 0 2.036 8.621c.321 1.239.709 2.444-.741 3.08-1.627.714-1.987-.824-2.59-1.77a6.319 6.319 0 0 1-1.035-2.239c1.019-.968 1.019-.968-1.206-2.013-1.477-.83-2.324-2.466-4.017-3.097 1.66 2.638 3.967 4.728 5.533 7.377.42.703.98 1.327 1.395 2.04.83 1.416.254 2.467-.891 3.319-1.3.973-2.214.282-2.988-.797-1.422-2.03-2.944-3.992-4.283-6.082-1.439-2.246-3.376-4.01-5.534-5.846-.26 1.366.604 1.792 1.146 2.295 3.265 3.025 5.533 6.852 8.344 10.23a4.35 4.35 0 0 1 .969 3.872c-.26 1.078-.836 1.714-1.91.663a8.774 8.774 0 0 0-.901-1.659c-6.558-6.851-11.493-15.013-17.857-22.014-.83-.913-1.743-1.936-.775-3.147 3.32-4.125 4.222-9.622 7.11-12.652-1.26 1.554-4.116 3.235-5.593 6.177-.305.608-.886 1.31-1.75 1.106-1.023-.266-.956-1.233-1.034-2.035-.088-.918 0-1.842-.06-2.765-.034-.52.11-1.25-.626-1.338-.625-.083-.885.553-1.134 1.028-.709 1.394-.703 3.058-1.66 4.363a1.55 1.55 0 0 1-1.107.72c-.786-.294-.874-.985-.985-1.66 0-3.594.78-7.117.996-10.711-.454 3.937-2.28 7.603-2.07 11.684.139 2.732-1.97 4.85-4.73 5.044-.554.038-1.107-.21-1.55.381-.044 1.067.841 1.543 1.483 2.146 7.193 6.713 14.525 13.271 20.95 20.787 1.328 1.553 1.848 3.113 1.234 5.065-.615 1.952-1.417 2.25-2.955.874-2.54-2.273-4.604-5.01-6.867-7.554-4.471-5.038-9.407-9.622-14.16-14.378a9.58 9.58 0 0 0-3.033-1.897c-2.053-.884-2.623-2.41-2.053-4.5.675-2.49 1.516-4.928 2.39-7.356a4.137 4.137 0 0 1 2.352-2.543c2.109-.94 2.336-1.969.764-3.744-1.571-1.775-3.32-3.44-4.244-5.735-.376-.94-1.013-1.869-.99-2.853.099-4.346-1.473-8.665-.167-13.04.349-1.166.808-2.444 0-3.688-1.106.299-.907 1.173-1.045 1.83-1.284 6.111-1.887 12.166.807 18.144.604 1.35 1.566 3.285.266 4.424-1.3 1.14-2.855-.503-4.233-1.067a21.716 21.716 0 0 1-4.023-2.411c-1.898-1.316-2.501-1.007-2.65 1.338-.095 1.47.027 2.953-.056 4.424-.044.885.15 2.068-.93 2.378-.99.282-1.71-.609-2.174-1.388-2.313-3.899-4.394-7.908-5.119-12.443-.121-.78-.188-.912-.996-1.255-2.041-.862-2.816-5.02-1.715-7.56-1.151 1.135-1.206 2.379-.614 3.95 2.401 6.38 5.14 12.618 8.156 18.729 1.472 2.975 3.697 5.43 6.087 7.98 2.042-3.175-.37-5.79-.625-8.555.326-2.704.376-2.738 2.606-1.714a16.21 16.21 0 0 0 1.77.658c.327.116-.154.1.211.066.365-.033.299-.078 0-.044a11.512 11.512 0 0 1-4.14-2.146c-.475-.785-.635-1.615.145-2.212.553-.453 1.245 0 1.793.288 2.28 1.2 4.687 2.134 6.905 3.461 1.865 1.106 2.341 2.682 1.362 4.424-4.2 7.51-4.577 16.037-6.441 24.138-.858 3.738-1.51 7.554-2.059 11.38a24.638 24.638 0 0 0 2.114 13.958c1.013 2.262 2.302 4.424 2.9 6.84.287 1.19 1.178 1.162 2.041 1.455 1.445.492 3.088.929 2.767 3.058h-.188l-.183.055c-.84.442-1.842.343-2.672.796-3.735 1.217-3.874 1.162-6.214-2.212-.404-.58-.642-1.493-1.445-1.504-1.106 0-1.079 1.106-1.283 1.814-.443 1.543-1.66 2.035-2.988 2.489-1.738.276-3.26-.045-4.355-1.549a3.787 3.787 0 0 1-.554-.918c-.885-1.841-1.842-2.212-2.988-.188-.313.565-.82.997-1.427 1.217l-3.73 1.255c-.686.293-1.273 1.195-2.158.365-1.6-1.277-1.887-3.047-1.832-4.938.985-1.87 1.904-3.771 2.96-5.602 1.7-2.93 1.445-6.127 1.772-9.329.415-4.092.237-8.156.48-12.22.35-5.868.67-11.735.853-17.608.066-2.101.553-3.788 2.435-4.883.313-.194.601-.426.858-.691.846-.835 2.163-2.018 1.316-2.93-1.056-1.145-1.97.525-2.894 1.144-1.15.769-1.986 2.98-3.452 2.024-1.295-.852.442-2.439.597-3.744.255-2.096.587-4.18.78-6.282.056-.647.709-1.592-.26-1.952a1.849 1.849 0 0 0-2.136.852 9.26 9.26 0 0 1-.924 1c-1.715-.315-.63-1.531-.758-2.36.072-.418.177-.828.316-1.228.459-2.837.204-5.69.149-8.538a4.537 4.537 0 0 0-.2-1.25l-1.205-8.992c-.072-.553 0-1.26-.698-1.294-.918-.044-.868.775-.874 1.394 0 2.295-.183 4.612 0 6.89.647 7.244-1.583 13.77-4.742 20.09-.349.708-1.107 1.333-.327 2.212.78.88 1.61.553 2.49.166 2.214-.962 3.935-2.643 5.943-3.976.659 3.445-1.162 6.199-5.605 8.599a1.82 1.82 0 0 1-1.544.979 1.59 1.59 0 0 1-.72-.045c.134.227.405.139.598.255.338.193.554.42.438.84-1.356.465-3.907 0-3.525 2.013.337 1.759 2.766 1.056 4.128.658 2.053-.602 3.137.16 4.045 1.803 1.405 2.533 3.38 4.855 2.921 8.383-1.621-1.061-2.158-2.67-3.043-3.965a11.064 11.064 0 0 0-3.53-3.423c-.498-.287-.974-.602-1.467-.055-.647.725-.088 1.25.437 1.576 2.872 1.775 4.294 4.745 6.209 7.316a4.936 4.936 0 0 1 .72 5.21 12.988 12.988 0 0 1-2.419-4.06c-.99-2.212-2.562-4.036-4.167-5.806-.553-.62-1.184-1.73-2.213-.752-1.03.979 0 1.62.642 2.212 3.646 3.318 5.832 7.543 7.603 12.044a3.974 3.974 0 0 1 .088 3.368c-1.19-1.018-1.355-2.456-1.903-3.64a49.116 49.116 0 0 0-5.047-8.227c-.387-.526-.697-1.56-1.66-.896-.963.663-.453 1.404.072 2.134.797 1.106 1.522 2.29 2.28 3.434.144.603-.116.819-.697.725-.476-.553-.919-1.145-1.439-1.66-.52-.514-1.018-1.62-1.97-.674-.952.946.061 1.46.592 2.046 4.15 4.606 6.303 10.324 8.76 15.865.395.851.411 1.83.044 2.693-.985.094-.863-.763-1.107-1.277a114.304 114.304 0 0 0-6.8-12.957c-.764-1.25-1.583-3.799-3.774-2.433-1.987 1.239-1.417 3.169-.183 5.055 3.071 4.711 4.648 10.18 7.316 15.113.193.36.055.923.498 1.2.985.614 1.366 1.47.287 2.145-1.079.675-1.24-.508-1.72-1.15-3.415-4.595-5.661-9.849-8.483-14.776-.554-.923-1.013-1.94-2.103-2.333l-.78.448 7.58 13.625c-1.405.244-2.55-.37-3.652-1.106-1.355-1.355-3.038-2.378-4.061-4.07-.271-.459-.504-1.106-1.157-1.045-.835.072-.763.885-.974 1.466-.431 1.188-.708 3.008-2.263.702z" fill="#B18965"/><path d="M70.093 13.012c.736 3.638 3.73 5.79 5.788 8.554a15.705 15.705 0 0 1 3.104 7.742c-1.356.46-1.865-2.002-3.22-.696-1.107 1.067-.089 2.261-.1 3.395 0 1.427.786 2.765.415 4.733-2.767-3.61-5.865-6.376-6.402-10.949-.554-4.451-1.66-8.847-.554-13.343l.969.564z" fill="#B08964"/><path d="M85.155 16.269c1.787.509 2.894 1.548 2.767 3.55-.061.94-.039 1.83 1.284 1.078.813-.459 1.494-.641 2.119.282.625.924.066 1.66-.426 2.246-2.025 2.521-3.874 5.098-2.878 9.18-2.606-1.588-2.49-3.43-2.169-5.177.836-4.612-.824-8.051-4.631-10.59.498-1.271 1.898-1.017 2.766-1.659 1.09-.387.72.797 1.168 1.09z" fill="#372B1F"/><path d="M85.155 16.269l-1.168-1.073c2.767-2.627 6.176-1.421 9.352-1.587.465.553 1.107.481 1.704.47-.094 1.438-1.228.951-2.025 1.106-.98.194-1.937-.553-2.916-.039-1.655.338-3.586-.514-4.947 1.123z" fill="#484542"/><path d="M92.254 282.764c1.799-.553 2.175-1.99 2.463-3.583.138-.791.41-1.709 1.466-1.731.869 0 1.196.74 1.555 1.371.36.63.664 1.106.93 1.66 1.107 2.443 2.933 2.703 5.174 1.73a1.45 1.45 0 0 1 1.66.078c-2.65 1.36-5.296 2.51-7.94 0-.836-.797-1.66-.432-2.513-.034-.852.399-1.848.747-2.767 1.106a.376.376 0 0 1-.166-.409c.044-.116.094-.188.138-.188z" fill="#3A2F26"/><path d="M82.731 281.713c.238-.381.465-.78.73-1.15.643-.896.698-2.571 2.275-2.295 1.4.244 1.92 1.532 2.158 2.854a.94.94 0 0 1-.033 1.21 4.512 4.512 0 0 0-5.13-.619z" fill="#3A2E23"/><path d="M87.86 282.333l.034-1.211c1.018 1.697 2.656 1.764 4.36 1.659l.034.625c-1.754.79-3.171.204-4.427-1.073z" fill="#46392D"/><path d="M76.844 283.334l2.158-.365a1.554 1.554 0 0 1-1.931 1.31c-.443-.044-.747-.486-.227-.945z" fill="#4F4134"/><path d="M71.797 280.646c.553-.144 1.107-.907 1.66-.055 0 .498.028.995.044 1.493-.918-.06-1.283-.78-1.704-1.438z" fill="#3B322A"/><path d="M105.518 282.316l-1.66-.077c.858-.697 1.887-.393 2.844-.492v.553l-1.184.016z" fill="#564738"/><path d="M15.494 269.603c.846 3.03-2.69 3.008-3.437 4.933-.608.934-.066 1.94-.171 2.908a.973.973 0 0 1-.553.647c-.875 0-1.777.26-2.612-.21l-1.61-.033c-.244-.664.293-.901.664-1.233 2.705-2.87-.897-2.168-1.721-3.042.199-1.05.199-1.05 2.766-2.294l5.977-1.737.697.061z" fill="#382B20"/><path d="M8.71 277.881h2.766c2.9-.934 5.86-.796 8.854-.492l11.654-2.256c.774.033 1.704-.177 1.66 1.106-3.182.25-6.332.805-9.407 1.659-4.278.84-8.605.525-12.915.553-.897-.039-1.876.254-2.612-.57z" fill="#3C3026"/><path d="M6.043 273.573c.255-.082.523-.116.79-.099.958.254 2.463-.675 2.768.586a2.764 2.764 0 0 1-1.384 3.202c-1.538-.249-3.154-.177-4.581-.979-.443-1.106.06-1.659 1.156-1.825l1.25-.885z" fill="#A98360"/><path d="M4.82 274.458c-.504.476-1.107.896-1.052 1.709.188.138.244.271.177.404-.066.132-.127.193-.188.193-.553-.088-1.66.1-1.383-.702.277-.802.819-2.334 2.446-1.604z" fill="#473E34"/><path d="M3.757 276.764v-.597c1.489.382 3.093.288 4.477 1.106-.437.077-.902.116-1.151.58l-3.326-1.089z" fill="#4E4032"/><path d="M143.14 255.347c.554.525 1.019.37 1.18-.337a3.974 3.974 0 0 0-.88-3.622c-3.205-3.661-5.617-7.991-9.408-11.143-.67-.553-1.732-1.161-.835-2.212 1.057-1.25 1.76 0 2.479.553 3.785 3.075 6.031 7.382 8.948 11.154.492.641.697 2.256 2.158.923.979-.896 1.566-1.626.492-2.964-2.13-2.643-3.746-5.69-6.363-7.952-.72-.619-1.456-1.332-.554-2.3 1.018-1.078 1.605-.083 2.214.586.968 1.106 1.898 2.212 2.85 3.318.574.384.973.98 1.106 1.659a772.115 772.115 0 0 0 1.937 3.318c.315.553.553 1.31 1.405.746.59-.266.852-.959.587-1.548-1.046-3.02-1.904-6.083-2.894-9.146-.277-.84-.648-1.66.437-2.069 1.195-.459 1.688.443 1.97 1.35a29.656 29.656 0 0 1 1.483 7.819c.075.533.18 1.06.315 1.582 1.267-1.66 2.34-2.893 3.171-4.253 1.3-2.123 2.59-4.225 4.454-5.922 1.002-.913 1.251-2.212 1.472-3.5a32.326 32.326 0 0 1 4.67-11.99c2.54-3.965 2.939-8.25 1.782-12.674-.675-2.571.432-4.27 2.214-5.712.957-.77.282-1.554.144-2.185-.836-3.87-1.826-7.675-2.767-11.507-.37-1.012-.072-1.554 1.062-1.499.913.32 1.107 1.134 1.362 1.924 1.599 5.331 2.766 10.734 2.838 16.325-1.106.553-.553 1.006.116 1.448.886 1.018.952 2.34-.166 2.854-2.351 1.106-1.82 3.152-2.086 4.944-.215 1.443.222 2.936-.238 4.374l-1.211 6.536c-.2.276-.3.608-.493.88-.31.325-.768.464-1.206.364-1.732 1.897-1.992 4.38-2.678 6.68-.493 1.66-.664 3.39-1.207 5.032-.487 1.858-.27 3.733-.15 5.608 0 1.106-.83 1.659-1.537 2.328-.526.376-.936 1.106-1.771.63-1.395-1.797-1.146-3.7-.73-5.165-1.412 2.65-3.846 5.281-6.087 8.074-1.66 2.085-2.352 4.34-2.502 7.095-.149 2.654-.846 5.574-3.779 6.984-1.76-.26-.553.846-.603 1.36 0 .725.67 1.433.072 2.18a7.12 7.12 0 0 1-5.318-.985c-2.534-1.471-2.457-1.598-4.78 1.277a8.233 8.233 0 0 1 7.226 1.261c1.953 1.316 1.92-1.316 3.021-1.77.116-1.233-.138-2.67 1.61-3.013 1.511-.293 2.363.652 3.116 1.742.68.978 1.29 1.99 1.217 3.257-1.106 1.46-1.66-.238-2.186-.553-.996-.609-1.61-.581-2.324.243-1.455 1.687-3.502 2.875-4.139 5.248-.365 1.36-.824.066-1.234-.078a1.168 1.168 0 0 1-.725-.36c-2.766-3.112-3.834-3.234-7.265-.735a13.508 13.508 0 0 0-3.802 3.96 4.868 4.868 0 0 1-2.069 2.14c-.692.553-1.195 1.316-2.12 1.52-1.145.255-.868-.453-.746-1.072.431-3.042 2.44-5.198 4.21-7.488.526-.68 1.66-1.244.969-2.283-.758-1.134-2.014-1.206-3.215-.747-2.7 1.029-3.95 3.39-5.218 5.751-1.267 2.361-2.13 4.883-4.427 6.481-1.66-.553-3.525-.475-4.98-1.659.083-1.25 1.223-2.007 1.55-3.318-1.35.603-1.594 2.074-2.63 2.765-1.46-.835-1.582.105-1.842 1.228-.326 1.415-.691 2.997-2.766 2.615-.73-1.874-2.042-2.726-4.079-2.322-1.344.265-2.025-.2-1.494-1.604a1.752 1.752 0 0 0-.193-1.775c-4.98-7.797-6.115-16.158-4.029-25.139 1.5-6.436 2.546-12.978 3.907-19.448.775-3.694 1.776-7.338 3.807-10.601 1.057-1.687 1.018-3.008-1.134-3.915-2.291-.962-4.427-2.212-6.69-3.318-.449-.221-.936-.918-1.423-.398-.486.52-.066 1.183.388 1.659-.26 1.073-1.483 1.996-.498 3.262.874 3.246 3.165 6.415.232 10.026-2.097-2.699-4.665-5.076-6.336-8.14-3.613-6.636-6.407-13.653-9.047-20.726-.852-2.284.315-3.981 3.514-4.977-1.787 2.29-3.287 4.645-1.212 6.78 3.873 3.976 3.475 9.826 6.613 14.073.79 1.073 1.267 2.39 2.855 3.567v-6.901c0-1.134-.443-2.367 1.04-3.119 1.483-.752 1.953.553 2.767 1.145a35.422 35.422 0 0 0 7.924 4.302 20.687 20.687 0 0 0-1.804-6.918c-2.518-5.944-.443-11.779.194-17.651.105-.979.93-1.366 1.848-1.228 1.046.155.885 1.073.802 1.759-.205 1.73-.553 3.44-.763 5.176-.454 4.147.127 8.267.918 12.298.553 2.765 2.584 4.767 4.654 6.691 2.407 2.25 1.92 4.01-1.157 4.828a2.279 2.279 0 0 0-1.61 1.714c-.924 2.793-1.798 5.602-2.711 8.4-.438 1.338-.189 2.477 1.217 2.909 2.413.74 4.062 2.482 5.782 4.125a238.303 238.303 0 0 1 16.883 17.856c.952 1.106 1.931 2.212 3.116 3.561 1.521-3.047 1.106-4.872-.974-7.145a240.506 240.506 0 0 0-21.072-20.604c-.791-.675-1.937-1.382-1.311-2.72.625-1.339 1.588-.272 2.396-.194 2.49.227 4.913-2.55 4.598-4.977-.553-4.286 1.367-8.212 2.08-12.315a.818.818 0 0 1 1.046-.653c.664.244.554.819.449 1.394-.493 3.639-.947 7.283-1.417 10.927-.105.675-.858 1.582.603 1.703 1.162-1.526 1.063-3.49 1.776-5.165.47-1.106 1.223-2.394 2.54-2.079 1.146.277.803 1.66.764 2.666-.055 1.432-.299 2.87.232 5.159a43.413 43.413 0 0 1 9.214-10.402c.442.426.586.846.332 1.106-4.023 4.208-4.98 10.247-8.705 14.61-.769.89-.343 1.454.366 2.057 2.894 2.472 5.074 5.574 7.16 8.688 3.32 4.976 7.597 9.174 11.327 13.824.25.553.332 1.206-.492 1.106a4.605 4.605 0 0 1-2.385-1.255c-4.261-3.473-7.482-7.847-10.608-12.27-2.933-4.148-6.89-7.378-9.888-11.464-.703-.962-1.174-1.709-.604-3.147-1.311 1.554-2.473 2.699-4.061 3.379.15 1.167 1.15 1.626 1.804 2.317 5.229 5.53 11.26 10.357 15.45 16.833.89 1.377 2.938.74 3.48 2.405.16 2.212-.166 4.485.138 6.725 0 .365.52-.127.188.033-.055.028-.116-.055-.116-.243 0-1.57-.752-3.197.327-4.695 1.477-.664 2.932-.597 4.105.553.88.862 2.27.564 3.072 1.537z" fill="#35291E"/><path d="M147.036 126.402c-2.43-1.488-4.875-2.931-7.26-4.48-.67-.436-1.427-1.155-1.267-2.007.2-1.04 1.284-.78 2.075-.885 1.168-.166 2.335-.348 4.067-.602-5.113-4.325-10.78-7.222-15.333-12.415-1.173 5.873-3.669 10.319-8.72 13.974a7.53 7.53 0 0 1 1.78-4.026 25.389 25.389 0 0 0 5.446-14.178 21.151 21.151 0 0 1 1.599-6.946c1.002 1.178.293 2.583.515 3.871.372.9.392 1.907.055 2.82v-.033c-.437 2.533 2.092 2.964 3.149 4.424l9.999 6.702c.318.685.83 1.261 1.471 1.66.81.439 1.66.796 2.54 1.066.648.271 1.522 0 1.954.791.73 2.102-1.583 3.655-1.03 5.73.139.104.21.275.189.447.337 1.604.381 3.097-1.229 4.087z" fill="#362A1F"/><path d="M162.026 162.296c-1.184-2.45-1.455-5.165-2.268-7.742a3.714 3.714 0 0 0 .747-4.717c-.875-2.422-1.992-4.744-2.795-7.189-.31-.945-.869-1.863-.343-2.908a.492.492 0 0 1 .725-.133c2.734 5.685 4.98 11.613 9.003 16.634 1.107 1.36-.31 2.621-3.038 2.582 1.107 3.263 2.357 6.393 4.244 9.207 1.19 1.77 1.29 2.992-1.04 3.683-2.612.775-1.184 2.843-1.367 4.391a.67.67 0 0 1-.725.089c-1.599-1.997-.658-4.552-1.472-6.725.189-.956-.376-1.725-.636-2.571a14.071 14.071 0 0 1-1.035-4.601z" fill="#404040"/><path d="M160.898 244.685l1.66-1.658c0-.553 0-1.145.05-1.72 1.66-4.303 2.904-8.699 3.192-13.333a3.317 3.317 0 0 1 1.245-2.66l1.03-.553a4.21 4.21 0 0 1 .077 2.986c-.391 2.334-.788 4.666-1.19 6.996-.642.763.116 1.82-.553 2.582-3.353 5.784-3.818 12.11-3.84 18.62 0 4.534-.294 4.523-4.947 3.986-.358.033-.707.13-1.03.288l-.68-.044c-.814-1.438.171-2.732.32-4.092.897-.93 1.932-1.726 2.657-2.815 1.45-1.52 1.71-3.434 1.605-5.37a6.184 6.184 0 0 1 .404-3.213z" fill="#414040"/><path d="M169.812 217.683c0-2.018 0-4.042-.072-6.083-.05-1.371.155-2.444 1.555-3.202 1.4-.757 1.688-1.896.133-2.958a.763.763 0 0 1 0-1.134c.426-3.82-.714-7.482-1.267-11.192a23.264 23.264 0 0 0-2.064-7.062c-2.004-1.31-2.363-3.318-1.107-6.11 1.881 4.479 3.873 8.914 4.537 13.824.554 4.026 2.075 7.809 3.32 11.657 1.107 3.562.703 4.17-2.894 3.871-1.217-.094-1.007.67-1.19 1.35-.63 2.328.26 4.827-.951 7.04z" fill="#424241"/><path d="M158.092 139.618h-.553c-2.114-1.15-2.164-2.975-1.66-4.977 1.073-.52.957-1.161.215-1.902a7.195 7.195 0 0 0-3.552-1.936l-5.534-4.423c.41-1.35.82-2.705 1.234-4.054 2.579 4.933 7.238 7.742 11.405 11.016.615.388 1.197.824 1.743 1.305.583.627.772 1.524.493 2.333-.338 1.034-1.257.951-2.087.852-1.35-.138-2.479-.138-1.704 1.786z" fill="#424140"/><path d="M148.082 121.895c-.841-1.184-.636-2.4.083-3.484.46-.77.654-1.67.553-2.56a.442.442 0 0 1 .039-.63c1.66.337 2.85 1.83 4.847 1.387 1.19-.265 1.173.774.554 1.62-.941 1.317-2.407 1.543-3.83 1.892-.979.249-2.324.127-2.246 1.775z" fill="#444"/><path d="M167.001 179.964c.277 2.052-.863 4.357 1.107 6.11-.814 0-1.08.553-1.162 1.24a6.71 6.71 0 0 1-1.03-3.463 15.275 15.275 0 0 0-.553-5.126c-.221-.868-.67-1.747 0-2.615h.553c.349 1.288.714 2.571 1.085 3.854z" fill="#3E3329"/><path d="M133.147 105.925c-1.107-.603-2.33-1.062-3.27-1.858-.852-.714-.764-1.759.121-2.577l3.149 4.435z" fill="#494846"/><path d="M148.757 115.22c0 .21-.028.42-.039.63-.553.15-1.106.869-1.66-.027-.83-.846-2.213-.802-2.927-1.836.127-.448.354-.697.847-.442 1.348.332 2.628.899 3.779 1.675z" fill="#383027"/><path d="M144.978 113.545l-.681.641c.138.138.177.266.122.387-.056.122-.105.183-.155.183-.648-.553-1.793-.868-1.107-2.13a3.16 3.16 0 0 1 1.82.919z" fill="#534A41"/><path d="M168.163 227.742c0-.995-.05-1.99-.077-2.986l.514-.553a6.107 6.107 0 0 1-.437 3.539zm-1.732 9.578c.116-.874-.332-1.87.553-2.583-.05.89.233 1.847-.553 2.583z" fill="#494644"/><path d="M129.982 101.523c0-.94-.033-1.88-.055-2.82h.553c-.033.956.166 1.968-.498 2.82z" fill="#494846"/><path d="M170.238 34.075a29.873 29.873 0 0 0-7.708-7.228c-.703-1.487-3.17-1.819-2.678-4.092 7.193 2.3 12.229 6.88 14.968 13.936l-.183.149c-1.992-.072-2.706-2.195-4.399-2.765z" fill="#414140"/><path d="M147.086 20.15c-1.361-.115-2.44-1.227-3.874-1.072.432-1.725-.973-2.687-1.66-3.96 5.866 2.14 11.743 4.264 17.282 7.19-1.14 1.188-2.396.508-3.597.176-2.712-.768-5.28-2.09-8.151-2.333z" fill="#424242"/><path d="M147.086 20.15c2.584-.552 4.908.515 7.276 1.234 1.472.448 2.861 1.239 4.488.912l1.002.46c.26 1.78 2.81 2.062 2.678 4.091l-15.444-6.696z" fill="#3A2E24"/><path d="M432.98 254.733c2.578-.62 4.072.454 5.489 2.677 2.385 3.732 4.316 7.791 7.41 11.06v2.211c-2.391 3.672-4.926 7.261-7.122 11.06-1.45 2.51-3.199 3.871-6.148 3.318-.387-1.266.598-2.03 1.14-2.92 2.097-3.44 4.31-6.801 6.463-10.202 1.024-1.615 1.013-2.959-.072-4.53-2.213-3.151-4.111-6.491-6.264-9.671-.603-.885-1.4-1.77-.896-3.003zm-24.16 23.591c-3.801.21-3.79.21-3.801-3.622-.033-9.814-.072-19.63-.116-29.447 3.906 0 3.906 0 3.906 3.782.008 9.763.011 19.525.011 29.287zm-148.375 6.702c3.874-10.12 3.83-20.25.067-30.387 3.934 0 5.91 1.92 6.042 6.476.172 5.8.116 11.612 0 17.413-.044 2.035-1.107 3.871-2.075 5.635-.968 1.764-2.667.625-4.034.863zm62.562.011c.033-7.792.15-15.583.066-23.375-.027-2.494-1.77-4.573-2.362-6.967 3.873-.117 6.037 2.134 6.153 6.99.171 7.188.077 14.338.033 21.51-.017 3.164-2.523 1.366-3.89 1.842zm-94.728-.044c-2.568-4.22-5.024-8.51-7.747-12.625-1.223-1.841-1.345-3.174-.066-5.07 2.766-4.099 5.229-8.395 7.813-12.603h3.873c-2.717 4.396-5.085 8.626-7.868 12.563-1.4 1.986-1.074 3.38.06 5.143 2.624 4.054 5.147 8.173 7.92 12.592h-3.985zm150.661-6.675c-3.642.21-3.642.21-3.642-3.257 0-6.083-.071-12.166.045-18.249.033-1.863-.554-2.355-2.346-2.278-3.038.127-6.087.122-9.125 0-1.433-.055-1.754.553-1.616 1.748-.99-1.493-.553-2.29 1.2-2.212 4.4.188 8.8-.332 13.22.42 2.053.354 2.297 1.106 2.28 2.81-.055 7.028-.016 14.017-.016 21.018zm-100.24 6.708l.067-20.273c0-3.721 0-3.721 3.873-3.445v19.753c0 4.026 0 4.026-3.94 3.965zm72.423-.033c1.549-3.727 2.938-7.45 2.5-11.646-.149-1.466-.464-2.256-1.88-2.848-4.477-1.87-8.854-3.92-13.32-5.867-1.19-.52-2.55-.89-2.08-2.616.448-1.631 1.848-.52 2.766-.807.363-.034.729 0 1.08.1-.266 1.79.37 2.714 2.213 3.433 4.61 1.792 9.07 3.96 13.607 5.94.747.326 1.25.724 1.306 1.564.287 4.076.072 8.074-1.97 11.757-1.03 1.858-2.784.785-4.222.99zm-101.114-29.79c-4.36 2.157-4.344 2.151-4.366-2.505 0-2.483-.072-4.977-.11-7.443 3.906 0 3.812 0 3.95 3.777.078 2.052-.68 4.236.526 6.171zm43.067 6.033c.432-1.885-.514-3.594-.68-5.408-.094-1.023-.775-1.288-1.749-1.266-1.926.05-3.873 0-5.788 0 3.52-1.228 7.127-.642 10.42.381 1.942.598 1.82 3.59 1.549 5.375-.288 1.88-2.446.63-3.752.918zm120.061 23.774l1.14-6.565c1.261.238 3.358-.785 3.618.692.31 1.72-.31 3.837-1.156 5.446-.576 1.09-2.363.338-3.602.426zm-29.251.032c.554-2.173 1.3-4.33 1.146-6.635 1.245.282 3.093-.775 3.652.79.559 1.565-.116 3.445-.841 4.977-.813 1.665-2.612.614-3.957.868zm-8.814-33.162a20 20 0 0 0 0-6.636c1.211.177 2.938-.625 3.541.553.802 1.582.686 3.655.105 5.292-.548 1.532-2.401.52-3.646.79zm-21.714 9.34c.299-2.29-.797-4.363-.996-6.58 3.57 0 5.28 1.902 4.942 5.457a1.106 1.106 0 0 1-1.212 1.15c-.913.006-1.826-.016-2.734-.027zm-107.831 23.811c0-1.78.365-2.914 2.44-1.659.692.41 1.455.697 2.186 1.04-1.439.929-3.06.57-4.626.62zm37.157-29.689a10.938 10.938 0 0 1-3.812 1.515c-.045-.791-.083-1.499-.122-2.212 1.311.249 2.817-.625 3.934.697zm28.022 29.628c1.505-.669 2.994-1.365 4.51-1.996.924-.381 1.45-.144 1.15.985a9.412 9.412 0 0 1-5.66 1.012z" fill="#D3D3D3"/><path d="M351.123 284.993c-6.541 0-13.082 0-19.628.094-1.743.027-1.903-.481-1.544-2.052 1.052-4.6.974-4.617 5.59-4.617 3.131 0 6.263.038 9.406-.028.67 0 1.754.592 1.898-.84.11-1.107-.15-1.864-1.306-2.362-4.56-1.952-9.036-4.097-13.64-5.944-1.848-.747-2.55-1.731-2.33-3.661.172-1.549-.143-3.174.167-4.678 1.15-5.586 2.213-6.376 7.99-6.365 4.88 0 9.761.066 14.647.1 1.306 2.045 2.33 4.136.996 6.58l-13.164.088c-.636.902-2.579.25-2.485 1.632.078 1.16 1.66 1.26 2.607 1.73 3.69 1.825 7.547 3.285 11.288 5.005 1.704.78 2.562 1.908 2.595 3.782.067 4.142.1 8.262-3.087 11.536zm62.014.017c-4.24 0-8.478-.067-12.727.088-1.827.066-2.087-.636-2.076-2.212.067-9.401-.044-18.802.089-28.17.028-2.211-.426-3.135-2.817-2.891-1.267.132-3.148.812-3.823-.426-.841-1.549-.974-3.523-1.201-5.342-.166-1.289 1.013-.769 1.588-.774 4.239-.045 8.477 0 12.727 0 1.107 1.222.886 2.737.891 4.18 0 7.87.072 15.738-.028 23.602-.033 2.5.266 4.54 3.055 5.286l5.456.122c1.013 2.4.254 4.523-1.134 6.536zm-29.251.032c-7.193 0-14.353-.066-21.525.061-1.975.033-2.44-.553-2.39-2.45.116-4.23 0-4.235 4.426-4.235 4.294 0 4.294 0 4.294-4.33v-11.032c0-.885.172-2.157-1.256-1.82-4.377 1.034-4.659-2.035-5.162-4.938-.438-1.239-.144-1.94 1.311-1.93H373.8c2.08 0 2.025 1.576 2.08 2.903.155 3.949.045 7.908.061 11.862.08 1.376.07 2.756-.027 4.13-.3 2.533.553 4.259 3.043 5.055l6.087.094c1.112 2.472.476 4.64-1.157 6.63zm-90.81-23.806l-10.43.072c-2.723.785-3.138 2.765-3.06 5.292.143 4.933.06 9.871 0 14.81 0 1.271.11 2.593-.913 3.616-6.574.11-6.447.105-6.607-6.398-.183-7.51.907-15.08-1.052-22.507-.315-1.2.127-1.659 1.372-1.592 2.109.1 4.223.088 6.336.121 1.04 1.775 2.634.404 3.935.692l2.174-.791c1.35-.37 2.728-.16 4.095-.166 4.283-.011 6.01 2.837 4.15 6.851zm139.904-6.503c2.623 4.175 5.151 8.411 7.913 12.492 1.283 1.902 1.206 3.318-.072 5.193-2.85 4.136-5.49 8.416-8.212 12.635h-7.68c2.213-3.583 3.912-7.11 6.291-10.13 2.855-3.622 2.944-6.636 0-10.258-2.374-2.953-4.067-6.459-6.22-9.987 2.917-.16 5.445-.304 7.98.055zm-204.701 30.26c-7.515.265-7.515.265-11.477-5.917-1.582-2.472-3.12-4.977-4.78-7.405a2.99 2.99 0 0 1 0-3.771c2.44-3.672 4.886-7.344 7.121-11.137 1.024-1.742 2.214-2.478 4.195-2.245 1.66.188 3.32.127 4.98.177.525 1.05-.321 1.714-.753 2.46-2.042 3.484-4.122 6.957-6.374 10.308-1.162 1.72-1.107 3.086 0 4.75 2.158 3.174 4.172 6.492 6.109 9.81.52.89 1.455 1.72.979 2.97zm146.793-33.113a20.725 20.725 0 0 0-2.767 0c-2.617.365-3.874-.166-3.785-3.318.072-2.804.78-3.777 3.508-3.318 1.008.077 2.02.077 3.027 0a6.477 6.477 0 0 1 .017 6.636zm-111.594 9.854c-.089-2.66-.714-5.259-2.966-7.095-3.509 0-7.05-.553-10.514.553-3.669.26-3.575.255-3.713-3.318-.083-2.212.703-4.55-.764-6.608-1.93 0-3.873.116-5.793-.05s-2.114.587-1.66 2.212c.857 3.03.985 6.144.957 9.29-.072 7.267 0 14.538 0 21.805 0 6.636 0 6.636 6.507 6.53 1.295-2.007 3.077-.475 4.626-.635 3.37 1.205 6.862.47 10.293.63 2.147-1.886 2.938-4.424 3.027-7.111a237.28 237.28 0 0 0 0-16.203zm-8.793 16.706c-1.738-.122-3.486-.083-5.23-.116-.17-.21-.436-.376-.475-.653a59.606 59.606 0 0 1 0-15.694c.039-.27.293-.453.454-.669 6.927-.47 6.927-.47 6.927 6.299 0 3.036-.05 6.083 0 9.096.067 1.294-.315 1.836-1.676 1.737zm69.135-16.053c-.083-2.87-.835-5.635-3.11-7.692-5.706-.023-11.413-.043-17.12-.061-.935 0-1.854-.1-2.048 1.216-.26 1.759-.614 3.506-.957 5.425h14.1c.902 0 1.875-.216 1.82 1.283-.083 2.057 0 4.114 0 6.442-2.053-.807-3.63-1.554-5.279-2.057a16.107 16.107 0 0 0-8.975-.116c-1.815.553-1.804 3.567-2.69 5.447-.647 1.377-.182 2.903-.298 4.363-.233 3.008 1.106 5.707 2.628 7.946.93 1.372 3.63.338 5.534.454 1.106.066 2.213-.039 3.32-.066 1.93-.106 3.608-1.599 5.66-1.012.056.945.642 1.106 1.472 1.106 1.721-.045 3.442 0 5.169 0 .752-.797.863-1.798.863-2.82-.006-6.642.105-13.256-.089-19.858zm-11.62 16.036c-.813 0-1.627-.055-2.44-.088-.98-1.04-.886-2.306-.692-3.567.155-1.001.692-1.659 1.82-1.576 1.777.144 3.592-.354 5.346.282.741 4.955.741 4.955-4.028 4.938l-.006.011z" fill="#FFF"/><path d="M140.346 88.085c.144-1.106.299-2.167.437-3.257.177-1.377 1.107-2.909-.62-3.954-1.726-1.045-3.441-1.863-5.384-.027-3.28 3.09-7.082 5.53-10.873 7.946-.553.166-.747-.083-.636-.62l10.513-10.064c.554-.525 1.6-.912.775-1.94-.686-.858-1.527-1.339-2.612-.554-.67.481-1.4.89-2.02 1.422-5.671 4.805-12.649 7.57-18.703 11.784-.553.171-.725-.094-.642-.609 5.075-3.318 9.546-7.481 15.074-10.141 2.816-1.36 4.631-3.97 7.05-5.851l-.465-.68-30.368 15.987-.47-.88c3.58-2.035 7.138-4.114 10.751-6.082 5.323-2.92 10.696-5.751 16.047-8.666 2.175-1.183 3.874-2.665 3.94-5.53.044-1.747 1.107-3.317 2.307-4.606a1.871 1.871 0 0 1 2.524-.326c1.145.818-.172 1.399-.476 1.99-.659 1.261-1.81 2.318-1.483 4.037 1.815-.409 3.021-1.493 4.222-2.637a32.936 32.936 0 0 1 3.397-2.81c.88-.635 1.66 0 2.103.658.443.659-.221 1.106-.835 1.388-1.721.747-3.071 2.013-4.51 3.158-.554 1.056-1.727 1.388-2.584 2.035.132 0 .188-.083.287-.133 1.544-1.106 3.155-1.659 4.98-.713-.553 2.162-2.982 2.14-4.216 3.545-.598.68-2.164.868-1.156 2.212 1.167 1.57 1.859 0 2.584-.609 1.057-.89 1.98-1.924 3.027-2.82.675-.586 1.532-.79 2.213-.072.863.874.05 1.51-.498 2.085-.517.516-1.072.993-1.66 1.427-.692.553-1.826.873-1.594 1.996.177.874 1.157 1.106 1.92 1.41 6.17 2.311 11.504.044 16.6-3.174 1.274-.802 1.76-2.323 2.159-3.76.46-1.66 1.107-3.219 2.65-4.28-.78 4.114-.553 8.62-4.73 11.32a1.21 1.21 0 0 0-.643 1.105c.465.79-.055 1.045-.641 1.421a37.426 37.426 0 0 0-6.026 4.601c-.897.758-1.688.348-2.44-.249a14.155 14.155 0 0 1-1.329-1.371c-.736-.758-1.72-1.41-2.628-.686-.908.725.398 1.394.487 2.151a.94.94 0 0 1-.155.736c-3.547-1.499-3.542-1.499-4.576 2.427-.183.686-.404 1.366-.736 2.467l-.338-2.207z" fill="#35291E"/><path d="M170.238 34.075c2.13-.127 2.983 1.77 4.427 2.765.03 5.873.063 11.742.1 17.607 0 1.294-.338 2.334-1.766 2.677.172-4.502.432-8.998.482-13.499.016-3.511-1.489-6.575-3.243-9.55z" fill="#3C2F23"/><path d="M135.416 92.581c.193-1.449.343-2.903.592-4.34.171-.996.465-2.252 1.726-2.025 1.035.183 1.45 1.189 1.196 2.395-.255 1.205-.388 2.36.481 3.384-1.107 1.736-2.396 2.228-3.995.586z" fill="#382C20"/><path d="M145.952 84.933a2.169 2.169 0 0 1-.41-.365c-.553-.84-2.136-1.836-1.107-2.615a2.906 2.906 0 0 1 4.173.58c.868 1.244 1.615 2.505 3.408 2.312-1.167 1.963-2.883.912-4.427.796-.79.354-1.206-.194-1.637-.708z" fill="#A88462"/><path d="M163.05 77.053c1.046-3.02 2.213-6.005 2.65-9.196a8.67 8.67 0 0 1 3.072-5.646c.63.122 1.145.464.62 1.073-3.077 3.555-3.249 8.162-4.538 12.353-.304 1.012-.365 2.002-1.804 1.416z" fill="#3D3126"/><path d="M130.353 91.945a3.52 3.52 0 0 1 .21-1.05c.553-1.057.382-3.136 1.66-3.025 1.66.138 2.047 1.99 2.047 3.61a1.5 1.5 0 0 0-2.18.305c-.47.564-1.057 1.15-1.737.16z" fill="#3B2E22"/><path d="M169.225 61.1c-.415-1.997.974-1.77 2.18-1.765-.42.99-1.04 1.687-2.18 1.764z" fill="#392D22"/><path d="M145.952 84.933l1.66.708c-.753 1.51-1.173.47-1.66-.216a7.297 7.297 0 0 0 0-.492z" fill="#42362C"/><path d="M126.496 13.144c-5.235 3.772-10.602 1.322-15.942.338-.16-.127-.21-.255-.155-.376.055-.122.11-.188.166-.188l2.18.055c1.228-.553 2.523-.133 3.78-.254 1.66-.188 3.42.376 5.074-.332 3.524-2.267 7.027.337 10.513.055-1.206.935-2.517.597-3.785.255-.736-.183-1.36-.327-1.831.447z" fill="#3D3228"/><path d="M143.688 35.629l-4.338 4.424c.271-2.765 1.881-3.871 3.204-5.093.19.448.65.72 1.134.669z" fill="#423326"/><path d="M159.116 253.384c-.321 1.482-1.046 2.588-2.65 2.892-1.29 1.62-1.777 3.561-2.297 5.53-.25.94-.2 2.024-1.08 2.726-.951.996.09 2.583-1.05 3.523-.631-.98-1.295-1.941-1.876-2.948-.515-.89-1.035-1.72-2.214-1.659-1.433.083-1.217 1.3-1.505 2.185-.072.232-.32.409-.492.613l.044.04-.614-2.213c-.155-.713-.725-1.581.636-1.753.614.072 1.311-.232 1.405-.663.498-2.323 2.922-3.927 2.18-6.78-.464-1.78.355-3.628 1.49-5.126 2.583-3.401 5.228-6.747 8.156-10.507.044 2.489-.089 4.568.553 6.553 1.273 2.66.98 5.187-.686 7.587z" fill="#B18964"/><path d="M128.294 277.892c1.538-2.72 3.232-5.264 5.96-7.028 4.144-2.688 5.583-2.378 7.902 2.024.199 2.3-.941 2.892-3.105 2.837-2.163-.056-4.327-.553-6.385.453-.841 1.106-2.037 1.482-3.32 1.753-.338-.022-.714.415-1.052-.039z" fill="#B08964"/><path d="M153.09 264.51a23.5 23.5 0 0 1 1.355-6.265c.305-.957.858-1.809 2.02-1.941.554 1.399-.426 2.588-.553 3.87-.82 2.058-1.633 4.11-2.6 6.554-.09-1.018-.156-1.615-.222-2.218z" fill="#3A2E23"/><path d="M129.362 277.931c1.002-.774 1.998-1.548 3.32-1.753h6.563c-3.176 1.377-6.585 1.471-9.855 2.212-.022-.138-.022-.299-.028-.459z" fill="#413327"/><path d="M117.747 280.054c1.505-2.72 2.994-5.446 4.516-8.156 1.14-2.03 2.54-3.871 4.764-4.772 1.826-.758 3.586-.316 4.687 1.222 1.173 1.659-.847 2.101-1.594 2.903-1.98 2.107-3.038 4.789-4.692 7.09-2.551.602-4.848 2.36-7.68 1.713z" fill="#B08964"/><path d="M111.688 277.86c.166-1.566 1.107-2.677 2.186-3.69.337-.32.725-.613 1.19-.248.464.365.326.818.094 1.233-.664 1.183-1.107 2.522-2.39 3.257l-1.08-.553z" fill="#9F7C5B"/><path d="M90.102 15.146c1.439-1.31 3.52.332 4.941-1.067a7.114 7.114 0 0 1 2.347-2.328c.62.365 1.217.774 1.859 1.106.769.365 1.964.354 1.66 1.659-.304 1.305-1.356 1.51-2.546 1.167-2.379-.553-4.836.199-7.193-.42l-1.068-.117z" fill="#3E3024"/><path d="M110.565 12.918v.553L99.01 10.85c-.293-.183-1.107-.139-.659-.703.626-.746 1.511-.719 2.258.033 1.4.824 3.032-.154 4.427.553.94.04 1.748.77 2.767.504l2.76 1.68z" fill="#423528"/><path d="M105.048 10.756c-1.478-.227-3.093.597-4.427-.553 1.45.265 3.055-.51 4.427.553z" fill="#41362C"/><path d="M121.599 12.387c-1.528 1.266-3.32.431-4.98.603-.172-.116-.227-.233-.172-.349.055-.116.11-.171.171-.171l4.98-.083z" fill="#535251"/><path d="M116.624 12.47v.52h-3.873c.819-.924 1.97-.321 2.921-.625l.952.105z" fill="#41362C"/><path d="M61.842 41.74c-.464 1.16 1.295 2.256.111 3.439-1.3-.592-1.25-1.736-1.195-2.887l1.084-.553z" fill="#423427"/><path d="M20.474 230.186c-1.516-4.623-4.239-8.67-6.28-13.045-.2-.62.088-.763.636-.658 2.767 3.998 5.39 8.063 7.98 12.205-1.821-6.271-5.75-11.585-8.069-17.619-.221-.63.1-.752.637-.663.973 1.565 1.909 3.146 2.938 4.673.332.503.431 1.72 1.45 1.056a1.366 1.366 0 0 0 .199-2.002c-2.396-2.98-3.442-6.713-5.534-9.865-.343-.52-.874-.99-.431-2.096 2.053 1.57 2.993 3.87 4.548 5.646.78.89 1.555 3.063 2.562 2.212 1.328-1.106-.974-1.902-1.466-2.959-.963-2.068-1.97-4.12-2.905-6.199-.188-.425-.504-1.189.426-1.172.93.017.957-.238.553-.896-.15-.232-.404-.437-.453-.686-.277-1.42-1.793-3.317-.117-4.164 1.677-.846 1.218 1.803 2.214 2.483.144.1.299.188.675.42 1.106-2.764.05-5.53.276-8.255 0-.26-.166-.553-.171-.802-.044-1.493-.614-3.722.935-4.076 1.4-.315 1.35 2.04 1.887 3.235.476 1.056.426 2.312 1.605 3.777.31-2.97.708-5.441.797-7.919.166-4.877 1.283-9.671 1.106-14.57-.038-1.002.16-2.329 1.478-2.185 1.106.116.647 1.371.603 2.118-.52 7.98-1.074 15.959-2.214 23.878-.27 1.836-.636 3.644-.121 5.452.68 2.406-.764 1.278-1.904.996.803 2.212.105 4.247-.083 6.331-.72 1.001.25 2.019 0 2.621.065-.38.26-.726.554-.978.658-.869 1.15-1.51 1.743.154.592 1.665.226 3.047-.072 4.563-1.5 7.703-.947 15.533-1.39 23.297-.43 7.675-.492 15.35-2.567 22.822-1.356-2.212.515-4.374.089-6.57l.553-5.53a8.29 8.29 0 0 0-.127-5.015c-.554-.852-.753-1.985-1.787-2.516-.653-.625-.891-1.482-1.268-2.257-.88-1.061-1.106-2.66-2.656-3.152l-.216.188c-2.8-2.947-3.707-6.801-5.024-10.462-.216-.553.055-.67.553-.553 4.322 1.659 4.947 6.16 7.288 9.345.935.376 1.156 1.4 1.898 2.069a5.927 5.927 0 0 1-1.328-2.677z" fill="#35291E"/><path d="M9.363 188.342c-.229 2.949-.46 5.887-.692 8.814-.968.67-.033 1.969-1.062 2.926.337-5.425-.759-10.673 1.106-15.766.233-.636.42-1.2 1.04-1.52v2.211c-.492 1.062.09 2.256-.392 3.335z" fill="#3F3125"/><path d="M12.572 221.477l-.553.553c-1.456-3.158-3.62-6.16-2.214-9.954.482 3.257 1.727 6.298 2.767 9.4z" fill="#44372C"/><path d="M21.027 238.63l-1.145-.193c-.16-2.35-2.684-3.584-2.806-5.95h.067c1.804.243 2.163 1.902 3.016 3.08.37.658.514 1.42 1.001 2.018.19.34.137.764-.133 1.045z" fill="#42372C"/><path d="M21.487 124.704l-1.743 3.318c-.16.227-.327.238-.493 0a12.759 12.759 0 0 1 1.66-3.871l.576.553z" fill="#493C31"/><path d="M44.135 69.936l-2.822 4.95c-.476.121-.73.033-.503-.52.962-1.66 1.488-3.528 2.766-4.977l.56.547z" fill="#45392D"/><path d="M40.81 74.366l.503.52-1.66 2.764c-.603-1.443.448-2.3 1.157-3.284z" fill="#524336"/><path d="M13.092 156.163c.1.426.116.896.598 1.106 0 .63.05 1.267-.553 1.715l-.604-.625c-.293-.84-.686-1.715.56-2.196z" fill="#816549"/><path d="M18.72 130.837c-1.195 3.268-1.799 6.735-3.32 9.887-.714 1.012.144 2.284-.554 3.318h-.553c-.32-3.274.869-6.265 1.743-9.312.897-1.87 1.79-3.739 2.678-5.608.349.518.351 1.195.006 1.715z" fill="#493E35"/><path d="M13.092 156.163c-.653.625-.41 1.466-.553 2.212-.659 0-.935-.331-.919-.956.88-2.212.244-4.85 2.059-6.758.415 1.897-.531 3.65-.587 5.502z" fill="#413428"/><path d="M14.227 145.181c.166 1.659.365 3.373-.554 4.933-1.217-1.803.072-3.324.554-4.933z" fill="#42362B"/><path d="M18.72 130.837V129.1c-.058-.447.16-.884.553-1.106h.493c-.35.937-.7 1.884-1.046 2.843z" fill="#504234"/><path d="M21.027 238.63l-.06-1.106a.41.41 0 0 1 .625-.083c1.693.321 1.544 1.57 1.41 2.81-1.421.387-1.383-1.035-1.975-1.62z" fill="#9B7C5E"/><path d="M77.342 215.914c.221.746-1.013 1.537.055 2.261-.98 1.35-3.043.714-3.967 2.162a.299.299 0 0 1-.51 0c.974-4.213 2.53-8.294 2.84-12.652.254-.182.586-.16.83-.354.265-.652.104-1.47.802-1.93a18.79 18.79 0 0 1 .06 9.401l-.293-.177c-.337-.298-.166-.83-.492-1.106.36.796-.238 1.808.675 2.395z" fill="#A6815E"/><path d="M70.104 251.907l.697-.724c2.855 3.462 4.632 7.488 6.043 11.696.105.663.774 1.515-.554 1.686a66.467 66.467 0 0 0-6.186-12.658z" fill="#A5805E"/><path d="M78.388 237.37c-1.39-.813-1.456-2.157-2.258-2.981a.724.724 0 0 1 .055-1.172 3.083 3.083 0 0 1 1.456-.598c.735-.027.735.653.741 1.195.017 1.078.006 2.162.006 3.555z" fill="#9D7A5A"/><path d="M72.378 270.66c.426 1.282 4.183.95 1.544 3.87a10.71 10.71 0 0 1-1.998-3.318.774.774 0 0 1 .454-.553z" fill="#9D7A59"/><path d="M77.392 205.418c-.244 1.106.514 2.334-.554 3.285-.658-.786-.315-1.997-1.15-2.704l1.172-1.24.532.659z" fill="#3F3024"/><path d="M66.7 259.904c-.304-.88-.602-1.753-1.106-3.141 1.527 1.006 1.693 1.974 1.107 3.14z" fill="#9A7857"/><path d="M75.698 205.999c1.804.298.786 1.797 1.151 2.704l-1.106-1.001c0-.57-.023-1.134-.045-1.703z" fill="#7C6147"/><path d="M76.274 264.565c.67-.398.448-1.106.553-1.686.553.553.515 1.272.493 1.974 0 .398-.244.73-.62.553-.216-.094-.288-.525-.426-.84z" fill="#83664B"/><path d="M72.92 220.354h.51c0 .603.343 1.338-.52 1.626-.183.06-.637-.116-.654-.227a1.327 1.327 0 0 1 .664-1.399z" fill="#A47F5D"/><path d="M72.25 267.137c-.918-.387-1.145-.985-1.2-1.903 1.013.2 1.328.753 1.2 1.903z" fill="#785E45"/><path d="M70.17 230.335l1.705-.486c.105.498 1.626.669.337 1.482-.653-.41-1.46.116-2.103-.354a.47.47 0 0 1 .061-.642z" fill="#4B392B"/><path d="M69.064 262.575c-.172.276-.266.613-.438.658-.448.116-.63-.25-.592-.614a.686.686 0 0 1 .449-.492c.166-.011.36.265.58.448z" fill="#7C6147"/><path d="M72.378 270.66l-.454.552a200.13 200.13 0 0 0-.736-1.57c-.249-.526.056-.691.554-.553l.636 1.57z" fill="#9D7A59"/><path d="M70.16 230.9c.702.055 1.515-.399 2.052.43l-1.566.554-.503-.481c-.133-.116-.172-.227-.128-.338.045-.11.094-.165.144-.165z" fill="#8E6F51"/><path d="M71.747 269.072c-.182.188-.37.37-.553.553-.404-.453-1.068-1.034-.426-1.51.41-.31.819.432.98.957z" fill="#7B6046"/><path d="M49.198 275.537a1.554 1.554 0 0 0 .78 1.659c1.152.78.604 1.3-.26 1.78a4.358 4.358 0 0 1-1.034-.105 9.731 9.731 0 0 1-.686-.182c-.853-.332-2.07 0-2.39-1.311.298-2.97 1.183-5.696 3.32-7.908.685.139.475.83.757 1.222-.714 1.25-.553 2.61-.503 3.954l.016.89z" fill="#3C2F24"/><path d="M53.559 278.423c-.554-2.074 1.19-.691 1.72-1.106.106 1.388-.968 1.001-1.72 1.106z" fill="#454545"/><path d="M49.669 270.665a1.327 1.327 0 0 1-.554-1.173c.349-3.65-2.102-6.276-3.414-9.317-.265-.598-.741-1.073-1.024-1.66-1.516-1.846-2.285-1.93-3.58-.27-.996 1.305-2.125 2.682-2.213 4.385-.133 3.799-1.173 7.438-1.738 11.154-.116.763-.553 1.659.283 2.295.22.17.553 0 .758-.155.736-.636.658-1.471.514-2.295-.791-4.468 1.732-8.04 3.182-11.906.913-.039 1.024.702 1.278 1.3.183 1.46 2.717 1.227 2.286 3.074-.321 1.36-1.749 1.825-2.546 2.815-2.246 2.792-1.804 5.613 1.262 7.869.522.3.948.744 1.228 1.277-.081.539.13 1.08.554 1.421a.486.486 0 0 1-.16.587c-.61-.089-1.628 0-1.76-.294-1.423-3.174-3.802-1.73-5.966-1.343-.553.381-1.211.083-1.804.215-.514.028-.913.653-1.505.31l-.553-.553-.553-2.212-1.66-1.106c1.798-2.168 1.98-4.706 2.268-7.438 1.356-12.751 2.562-25.509 6.01-37.979 1.853-6.724 4.576-13.2 5.81-20.1a1.2 1.2 0 0 1 1.206-1.173c.554 2.765-.315 5.397-1.057 7.924-3.06 10.358-5.223 20.87-7.243 31.421-.387 1.996 1.278 3.257 1.937 4.877.193.476.797.194 1.04-.293.243-.486.365-.846.587-1.244.492-.863.874-2.212 1.953-2.085 1.178.116.664 1.504.885 2.328a30.531 30.531 0 0 0 3.874 8.798 2030.52 2030.52 0 0 0 3.873 6.028c-2.645.392-2.529 2.848-3.458 4.518z" fill="#36291E"/><path d="M54.704 268.818c1.19.862 1.782.724 1.66-.902-.088-1.067.227-2.1 1.317-2.427 1.229-.37 1.334.907 1.848 1.576 1.201 1.576 2.43 3.13 3.647 4.69-1.107-.233-1.937-.985-2.855-1.566a1.66 1.66 0 0 0-2.214.05c-2.053 1.598-2.495 1.366-3.403-1.421z" fill="#3A2E22"/><path d="M35.912 277.881l2.158.553c.089 1.106-.896 1.195-1.571 1.565-1.184-.437-1.151-1.205-.587-2.118z" fill="#A88361"/><path d="M35.912 277.881c-.348.852.1 1.488.554 2.113-1.55 1.283-1.212-.598-1.732-1.04l1.178-1.073z" fill="#3F3429"/><path d="M45.795 280.066v-.454a1.721 1.721 0 0 1 1.627-.663c.47.02.904.255 1.179.635-.836.83-1.87.382-2.806.482z" fill="#534539"/><path d="M48.579 279.584l-1.107-.121c-.05-1.31 1.051-.597 1.577-.896l.67.382c-.21.52-.687.564-1.14.635z" fill="#997859"/><path d="M63.53 203.2c-1.843-3.804-2.816-7.946-4.382-11.817-2.059-5.087-2.43-10.22-2.396-15.517a27.08 27.08 0 0 1 1.184-8.682c.686-2.007-.183-2.007-1.66-1.493-.609.21-1.212.426-1.82.62-.836.27-1.788.995-2.441-.127-.598-1.029-.055-1.953.747-2.682 1.892-1.731 3.873-3.368 5.312-5.53.332-.84 0-1.001-.77-.78-1.161.63-2.766 1.709-3.574.553-.808-1.156.847-2.273 1.782-2.992 6.602-5.065 9.7-12.287 12.417-19.763.841-2.295.814-2.306 2.728-3.363-1.261 5.857-4.183 10.878-6.087 16.27-.315.635-.249 1.481-.79 1.719a7.237 7.237 0 0 1 1.35-1.106c2.213.747 1.31 2.112.475 3.174-2.567 3.24-5.246 6.393-7.885 9.572-.448.553-.919 1.057-1.61 1.847 1.909-.05 3.154-.851 4.465-1.426.482-.205.99-.68 1.5-.183.509.498.26 1.04.105 1.565a5.4 5.4 0 0 1-.603 1.537c-3.265 4.756-2.817 9.893-1.66 15.125.144.624.182 1.271.27 1.907.515.77-.099 1.366-.309 2.024a3.704 3.704 0 0 0 .194 2.09c.188.742.337 1.494.553 2.213.37 2.41 1.787 4.578 1.66 7.105.587 2.345 1.177 4.69 1.77 7.034.294.553.543 1.156-.525 1.106z" fill="#362A1E"/><path d="M32.028 224.761a2.91 2.91 0 0 1-1.594 1.798c-.647.365-1.372.774-2.053.293-.68-.481-.044-1.178-.1-1.759-.31-3.39 2.701-5.42 3.37-8.394.233-1.05.587-2.08.875-3.075-.609-.304-.825.033-1.107.205-.869.514-1.876 1.205-2.728.254-.935-1.045.42-1.565.858-2.245a84.123 84.123 0 0 0 8.178-15.578c.316-.829.3-2.565 1.594-2.029 1.2.492.05 1.775-.271 2.632-.642 1.714-1.057 3.528-2.147 5.054-.244.343-.697.952-.16 1.167 2.816 1.134 1.007 2.915.553 4.308-.902 2.693-2.08 5.292-3.143 7.93-.288.453 0 1.012-.327 1.493.404-.227.581-.653.935-.885.515-.553 1.046-1.2 1.849-.553.802.647.686 1.432.487 2.284-1.71 7.344-2.042 14.903-3.514 22.28a65.797 65.797 0 0 0-1.107 12.044 10.705 10.705 0 0 1-.935 4.81c-.498-6.668 0-12.718.714-18.756.509-4.192.968-8.39 1.405-12.586.078-.736.338-1.991-1.145-.918-.493-.056-.957-.46-1.533-.116.26.409.797-.012 1.046.342zM99.016 93.836c-1.97 4.75-5.124 8.848-7.298 13.576a170.5 170.5 0 0 1 3.397-3.594c.449-.46.99-.985 1.66-.553.67.431.36 1.133.139 1.742l-1.184 3.273.514.26 6.292-9.5c.442-.67.747-1.66 1.793-1.377 1.045.282.83 1.338.73 2.118-.332 2.566.99 2.522 2.805 1.897a817.028 817.028 0 0 1 11.776-3.954c.725-.232 1.427-.985 2.34-.321-.11 1.305-1.311 1.41-2.135 1.836-4.67 2.444-9.795 3.722-14.72 5.53-4.426 1.592-7.813 3.965-9.6 8.422-.554 1.41-1.533 3.428-3.154 2.604-1.207-.613-.775-2.814-.067-4.302.194-.398.388-.79.73-1.51-2.052.15-2.938 1.742-4.315 2.4-.482.233-.936.72-1.511.448-.747-.36-.487-1.106-.493-1.714 0-1.377.736-2.472 1.511-3.484 3.586-4.678 7.05-9.4 10.182-14.427.525-.1.846.005.608.63z" fill="#362A1F"/><path d="M143.14 255.347c-2.556.31-4.349-2.516-7.027-1.703-1.66-.144-.498-1.66-1.107-2.312-2.728.188-3.552-2.062-4.858-3.738-3.979-5.104-8.621-9.589-13.352-13.974a37.24 37.24 0 0 1-3.962-3.965c3.491-.105 4.67-2.914 6.546-4.8.182.288.376.493.337.553-2.07 3.219.913 5.132 2.407 6.636 4.599 4.712 8.494 9.954 12.423 15.152 1.898 2.527 4.46 4.38 6.64 6.636.476.492 1.278 1.106 1.522-.304.609.497.47 1.172.432 1.82z" fill="#B08964"/><path d="M165.335 176.11c.554 2.554 2.026 5.043.554 7.741-.93-2.46-1.699-4.976-1.721-7.625-.554-.88.21-2.024-.554-2.865-4.598 1.477-9.473.918-14.138 1.886a7.237 7.237 0 0 1-3.27-.249c-3.26-.796-3.702-.586-3.525 2.887.316 6.199-1.577 11.795-4.316 17.187a64.697 64.697 0 0 1-7.747 11.408c-.365.448-.67 1.15-1.754.835.42-1.344 1.478-2.212 2.164-3.351 2.711-4.424 6.197-8.494 7.658-13.587 1.312-4.568 2.529-9.185.913-14.057-.437-1.316 0-3.03.216-4.49.171-1.311 1.754-1.134 2.767-.598 6.446 3.373 12.782.42 19.151-.31a2.722 2.722 0 0 0 1.937-1.443c1.627.868.885 2.417 1.107 3.7.16 1.012.37 1.957.558 2.93z" fill="#372A1F"/><path d="M71.836 68.852l-3.874 3.871c-.553.127-.769-.05-.608-.614l2.351-3.655c-.525-.448 1.445-1.399-.326-1.592-.343-.194-.553-.42-.37-.846l3.54-4.358c-.26-.553-.946-.138-1.25-.553 3.409-4.794 6.17-10.153 11.537-13.233.703-.404 1.461-1.659 2.319-.68.72.824-.487 1.454-.974 1.969-2.645 2.764-4.156 6.215-5.788 9.594-1.013 2.09-.697 4.12.066 6.132.277.73.648 1.427-.077 1.986-3.32 2.538-5.14 6.425-8.223 9.185-.553.088-.797-.083-.636-.664 1.848-1.786 1.804-4.424 3.032-6.525.216-.973 1.107-1.421 1.572-2.013.36-.365-.26-.393.066-.216a10.915 10.915 0 0 1-2.357 2.212z" fill="#362A1F"/><path d="M111.583 34.108c-3.071-.06-4.98-.796-5.395-3.362-.255-1.587-.83-1.465-1.998-.874-1.621.819-3.292 1.261-4.653-.602-.482-.653-.709-1.206-.332-1.997.24-.723.986-1.15 1.732-.99 6.833.996 13.783 0 20.59 1.256.785.149 2.174-.177 2.174 1.106 0 .934-1.223.956-1.992 1.106a9.413 9.413 0 0 1-2.706.31 2.911 2.911 0 0 0-2.993 1.46c-1.184 1.785-2.955 2.676-4.427 2.587z" fill="#362A1E"/><path d="M110.61 129.183c-2.928 4.236-5.844 8.483-8.8 12.719-.436.625-.857 1.659-1.897 1.078-.797-.448-.498-1.3-.25-1.996.604-1.698.504-3.434.344-5.325a3.431 3.431 0 0 0-2.48 1.482c-2.821 3.931-7.032 6.154-10.84 8.847a3.166 3.166 0 0 1-1.222.62c-1.212.199-3.016 1.017-3.43-.426-.471-1.626 1.526-1.333 2.556-1.626a17.554 17.554 0 0 0 7.658-4.761c2.971-3.02 5.849-6.127 7.974-9.843.426-.747.868-1.958 1.964-1.532 1.096.426.47 1.615.426 2.477-.105 2.002-.27 4.004-.448 6.443 3.21-2.81 4.477-6.725 7.747-8.848.564-.105.858.066.697.691z" fill="#372A1F"/><path d="M158.037 59.22c-2.844 0-6.214-2.5-6.674-4.922-.127-.67-.243-1.344.46-1.698.702-.354.99.227 1.294.686.305.459.46 1.106 1.162.95.703-.154.88-.912.941-1.53a9.695 9.695 0 0 1 1.03-3.695c1.3-2.427 4.028-3.87 6.114-3.318 1.903.503 3.48 3.152 3.458 5.796-.027 3.511-4.244 7.725-7.785 7.73zm-17.519-17.984c.813 2.472-1.212 4.065-1.605 6.293.819.05 1.527-1.427 2.307-.298.648.934-.326 1.504-.708 2.156-2.462 4.275-6.208 7.46-9.523 11.005-.443.47-1.024 1.028-1.66.553-.913-.647-.116-1.322.243-1.875.454-.686 1.107-1.239 1.566-1.913.393-.553 1.45-1.195-.387-1.477-1.389-.21-1.068-1.532-.426-2.383a28.04 28.04 0 0 1 2.307-2.356c2.861-2.98 6.33-5.502 7.886-9.705z" fill="#362A1F"/><path d="M50.692 212.092c-1.034-4.932-2.872-8.803-4.626-12.718-.62-1.377.15-1.88 1.185-1.582 2.213.642 1.66-.497 1.494-1.803-.498-3.45-.891-6.912-1.251-10.38-.094-.867-.216-2.134 1.013-2.211 1.372-.072 1.106 1.239 1.057 2.08a34.188 34.188 0 0 0 2.617 14.255c.481 1.178.498 2.184-.708 2.843-1.522.835-1.107 2.001-.858 3.317.349 1.814 1.804 3.55.077 6.2zm105.319 21.932c-.188.62.554 2.007-.647 2.145-1.107.133-1.007-1.282-1.256-2.117-.553-1.836-2.064-3.009-3.11-4.507-.896-1.272-1.455-2.544-.083-3.927 1.372-1.382 2.839-.995 3.281.47.742 2.528 1.976 4.994 1.815 7.936z" fill="#382B20"/><path d="M20.33 277.373c-2.894 1.067-5.893.215-8.854.492v-.625c1.057-.553 2.291.177 3.32-.448 1.87-.16 3-1.029 3.32-3.02.316-2.112 1.865-3.317 3.708-4.086a2.292 2.292 0 0 1 3.204 1.305c.67 1.836-1.046 1.106-1.826 1.35-1.621.525-3.226 3.317-2.872 5.032z" fill="#382C20"/><path d="M155.923 134.63c.553 1.66.52 3.517 1.66 4.977.553 2.665 1.704 5.104 2.667 7.62.293.94.524 1.9.692 2.87.271.553-.033.625-.487.553-2.595-4.274-4.338-9.014-7.194-13.178-1.09-1.62.017-2.698 2.662-2.842z" fill="#372B20"/><path d="M41.828 106.39c.32-.327.63-.676.974-.974.492-.437 1.106-.907 1.66-.255.553.653.027 1.305-.443 1.66-2.103 1.542-3.53 3.71-5.307 5.53-3.27 3.395-5.815 7.332-8.466 11.186-.509.072-.83 0-.553-.63.741-1.244 1.416-2.533 2.246-3.716a23.524 23.524 0 0 0 2.601-5.093c.703-.692 1.107-1.587 1.715-2.35 2.308-1.306 3.298-4.004 5.573-5.359z" fill="#3F3124"/><path d="M161.816 218.12c-2.396-.453-4.82-1.87-5.301-3.036-.885-2.168-2.612-3.788-3.254-5.945-.32-1.067.498-1.697 1.716-1.166a4.165 4.165 0 0 1 1.964 2.212c1.345 2.715 3.586 4.86 4.875 7.935z" fill="#392C20"/><path d="M45.23 95.34c3.47-4.423 6.918-8.847 10.437-13.216a10.037 10.037 0 0 1 2.374-1.875c.597-.392 1.46-.83 1.953-.044.393.614-.27 1.294-.813 1.554-4.759 2.295-6.58 7.327-10.132 10.74a3.02 3.02 0 0 1-2.142 2.322l-1.15 1.106c-.487.083-.786.005-.526-.587z" fill="#3D2F23"/><path d="M158.712 227.206a65.592 65.592 0 0 0-5.6-9.401c-.349-.46-.614-.951-.083-1.449.653-.614 1.295-.448 1.975 0 2.662 1.836 4.737 7.36 3.708 10.85z" fill="#392C20"/><path d="M121.792 175.988c-2.257-3.036-3.281-6.697-5.39-9.771a11.506 11.506 0 0 1-1.106-1.892c-.37-.879.282-1.37.919-1.764a.853.853 0 0 1 1.35.454c1.145 4.402 3.934 8.25 4.227 12.973z" fill="#3B2E22"/><path d="M112.75 187.722c-2.174-3.904-3.242-8.04-4.897-11.917-.36-.84.078-1.658 1.107-1.858.703-.143.99.327 1.046.94.326 3.606 2.009 6.835 2.839 10.297.149.713.736 1.482-.094 2.538z" fill="#403224"/><path d="M115.445 182.945a5518.889 5518.889 0 0 1-4.703-11.37 1.326 1.326 0 0 1 .869-1.969c.686-.226.946.271 1.106.863 1.107 3.783 2.258 7.56 3.36 11.353.036.35.01.704-.078 1.045l-.554.078z" fill="#413225"/><path d="M118.273 179.665a17522.74 17522.74 0 0 1-5.08-11.458c-.398-.884-.32-1.791.554-2.118 1.228-.453 1.162.808 1.394 1.477 1.356 3.943 2.667 7.897 3.99 11.845l-.858.254z" fill="#3F3124"/><path d="M110.598 190.874c-1.986-1.283-1.942-2.765-2.374-3.965-1.012-2.737-1.892-5.53-2.85-8.294-.276-.797-.27-1.504.61-1.803.63-.21 1.05.304 1.194.852 1.096 4.169 2.164 8.344 3.42 13.21z" fill="#403224"/><path d="M123.192 171.84c-1.615-3.317-3.259-6.635-4.82-10.003-.298-.647.161-1.25.759-1.604.597-.354 1.073-.055 1.289.553a2040.69 2040.69 0 0 1 3.824 10.7l-1.052.355z" fill="#3C2F22"/><path d="M167.505 40.528c1.615 0 2.943 1.106 4.188 2.373a1 1 0 0 1 .205 1.26.952.952 0 0 1-1.455.183c-1.931-1.576-3.99-1.565-6.17-.658-.321.133-.708.304-1.002-.06a.918.918 0 0 1 .122-1.24 5.137 5.137 0 0 1 4.112-1.858z" fill="#3B2E22"/><path d="M127.066 166.62c-1.71-2.416-3.437-4.822-5.135-7.25a.956.956 0 0 1 .166-1.443 1.074 1.074 0 0 1 1.66.177c1.781 2.494 3.442 5.06 4.078 8.08l-.77.436z" fill="#3E3023"/><path d="M49.801 93.267c1.55.26 2.031.929.681 2.073-2.877 2.44-4.892 5.635-7.476 8.323-.503.088-.769-.044-.553-.608 1.704-2.518 3.41-5.03 5.118-7.538a2.628 2.628 0 0 1 2.23-2.25z" fill="#3F3124"/><path d="M59.114 183.343c.332-.614 1.173-.913 1.107-1.77a49.257 49.257 0 0 1 2.811 10.457c.238.597-.1.758-.598.802-1.582-1.764-1.66-4.065-2.213-6.188.055-.769-.437-1.399-.553-2.129a1.537 1.537 0 0 0-.554-1.172z" fill="#413325"/><path d="M160.433 150.656l.487-.553c1.206 1.902 1.887 3.666-1.162 4.457-1.268-1.549-2.358-3.08.675-3.904z" fill="#3E3125"/><path d="M123.27 88.174l.636.619-7.747 6.702-.442-.509c2.24-2.56 4.62-4.976 7.553-6.812z" fill="#423326"/><path d="M152.575 130.798c2.7-.896 4.123 1.15 5.097 2.837.763 1.31-.742 1.327-1.76 1-.31-1.98-2.518-2.305-3.337-3.837z" fill="#3A2E23"/><path d="M60.642 186.146a30.023 30.023 0 0 0 1.848 6.52c.544.29.823.91.68 1.51-.1.066-.199.132-.293.204-.182.21-.365.415-.553.625-.98-2.311-1.992-4.617-2.214-7.161-.016-.63-.769-1.488.532-1.698z" fill="#997757"/><path d="M67.354 72.104l.608.614-4.011 6.36c-.072-3.319 1.77-5.1 3.403-6.974z" fill="#473728"/><path d="M41.828 106.39c-1.572 2.123-2.618 4.755-5.445 5.673a.636.636 0 0 1-.144-.647c.708-.791 1.361-1.632 2.014-2.472.553-.796 1.267-1.427 1.787-2.212.438-.282.482-1.266 1.362-.774l.426.431z" fill="#9F7C5A"/><path d="M95.619 218.142c-1.162-1.294-.553-2.311.498-3.263l4.427 2.212c.15.553 0 .764-.587.625-.841-.31-1.787-.47-2.507-.956-2.158-1.493-1.809.143-1.831 1.382z" fill="#513F2E"/><path d="M20.474 230.186l2.075 2.461c.426.503.847 1.172.293 1.659-.758.675-1.057-.266-1.355-.713-.587-.896-1.107-1.847-1.616-2.765l.603-.642z" fill="#957455"/><path d="M69.008 66.01l.614.62c.272.613-.16.85-.553 1.105-1.228.553-1.317 2.411-3.32 2.765 1.024-1.825 1.76-3.412 3.26-4.49zm.515 9.357l.636.663c-.885 1.3-1.555 2.765-3.359 4.159.493-2.328 1.589-3.584 2.723-4.822z" fill="#49392A"/><path d="M29.687 122.918l.554.63-2.574 4.502-.608-.36a14.375 14.375 0 0 1 2.628-4.772z" fill="#4C3B2B"/><path d="M63.53 203.2c.465-.248.515-.707.553-1.155.825 1.482 1.66 2.964 1.716 5.17a6.795 6.795 0 0 1-2.269-4.015z" fill="#4A392A"/><path d="M162.026 162.296c1.107 1.371 1.19 2.964 1.035 4.612-1.356-1.31-2.141-2.748-1.035-4.612z" fill="#45372B"/><path d="M32.028 224.761c-.825.26-1.45 1.106-2.634.907a2.456 2.456 0 0 1 1.87-2.295c.83-.276.858.725 1.245 1.156a.631.631 0 0 1-.481.232z" fill="#907052"/><path d="M99.016 93.836l-.603-.652c.797-1.106 1.024-3.871 1.948-3.257 1.455.934-.791 2.389-1.15 3.727-.018.072-.128.121-.195.182z" fill="#493829"/><path d="M14.819 216.483l-.637.658c-.852-1.106-1.748-2.212-2.08-4.009 1.853.691 2.047 2.212 2.717 3.351z" fill="#4C3B2B"/><path d="M135.897 69.322l3.47-2.095c.62 1 2.18-.105 2.672 1.188-2.158-.702-3.807.465-5.494 1.494-.238-.166-.581-.233-.648-.587z" fill="#957455"/><path d="M45.23 95.34l.554.553-2.722 3.871c-.515.089-.786-.05-.598-.625l2.767-3.799z" fill="#4C3B2C"/><path fill="#8C6D50" d="M71.836 68.852l3.658-4.025.664.663-3.608 3.351z"/><path d="M106.797 92.116a8.002 8.002 0 0 1-3.53 2.251c.553-1.775 1.914-2.107 2.888-2.82.221.166.559.216.642.57z" fill="#4D3C2C"/><path d="M91.131 15.24c2.407.155 4.864-.553 7.194.42-2.385-.093-4.842.625-7.194-.42z" fill="#484542"/><path d="M34.745 215.93c-.233 1.073-.554 2.096-1.854 2.765-.227-1.493.587-2.405 1.245-3.373l.609.608z" fill="#927153"/><path d="M41.402 105.936l-1.107 1.04a.907.907 0 0 1-.515-.526l2.695-3.395.553.608-1.626 2.273z" fill="#4A3A2A"/><path d="M146.527 243.027a1.587 1.587 0 0 1-1.107-1.66c1.981-.934 1.788 1.494 2.878 2.024l-1.771-.364z" fill="#564231"/><path d="M65.151 148.455a7.529 7.529 0 0 1-3.104 3.063c.349-1.598 1.704-2.444 2.546-3.655.188.2.376.393.558.592z" fill="#A5805E"/><path d="M110.565 88.212l.642.609-2.872 2.123a.703.703 0 0 1-.631-.586 8.471 8.471 0 0 1 2.86-2.146z" fill="#4B3A2A"/><path d="M36.521 111.46c-.044.205-.094.404-.138.603-.078 1.167-.808 1.742-1.848 2.046-.344-1.31.597-1.952 1.388-2.671a.343.343 0 0 1 .598.022z" fill="#52402F"/><path d="M49.801 93.267l-2.213 2.25-.658-.696a6.682 6.682 0 0 1 2.141-2.323l.73.769z" fill="#A37F5C"/><path d="M24.757 206.496c.088.84-.061 1.604-1.107 2.715.05-1.797-.348-3.096.554-4.357.143.564-.117 1.255.553 1.642z" fill="#765C43"/><path d="M77.342 215.914c-.388.1-1.03.525-1.03-.205 0-1.394-.52-2.887.51-4.164.586 1.023-.067 2.212.426 3.246l.204.028c-.033.365-.072.73-.11 1.095z" fill="#6A533C"/><path d="M15.367 210.406l-.637.663c-.614-.873-1.361-1.659-1.605-3.273 1.461.558 1.782 1.648 2.242 2.61z" fill="#49392A"/><path d="M69.047 67.73l.553-1.106 1.898-1.394a5.39 5.39 0 0 1-1.81 3.208l-.641-.708z" fill="#A5805E"/><path d="M14.863 276.792c-1.03.757-2.213.437-3.32.448 0-.93-.244-1.92.514-2.704-.37 2.36 1.257 2.261 2.806 2.256z" fill="#8C6D50"/><path d="M36.521 111.46h-.598a7.355 7.355 0 0 1 2.125-2.815.957.957 0 0 1 .51.553 6.084 6.084 0 0 1-2.037 2.262z" fill="#4E3D2C"/><path d="M150.384 179.992l1.439 2.687c-1.356.127-1.627-.785-2.031-1.515-.222-.603-.487-1.222.592-1.172z" fill="#463728"/><path fill="#453527" d="M38.557 109.182l-.509-.553 1.705-2.174.514.526z"/><path d="M57.316 157.175c.553-.636 1.107-1.205 2.064-1.106.072 1.012-.708 1.4-1.295 1.908l-.769-.802z" fill="#8A6B4F"/><path d="M117.73 223.102c-.154.299-.232.747-.47.852-.398.182-.603-.166-.608-.553 0-.702-.089-1.421.476-1.99.182.569-.089 1.299.603 1.691z" fill="#86684C"/><path d="M110.61 129.183l-.698-.691c.426-.52.586-1.3 1.51-1.504.393 1-.243 1.587-.813 2.195z" fill="#4D3C2C"/><path d="M70.16 230.9v.497h-1.877c.294-1.327 1.179-1 1.887-1.062-.005.188-.01.377-.01.565z" fill="#6A533D"/><path d="M63.591 193.755c.714.675.46 1.493.448 2.384-.907-.37-.93-1.106-1.162-1.759l.166-.055c.166-.227.194-.542.548-.57z" fill="#795E45"/><path d="M150.384 179.992c-.51.237-.553.713-.592 1.172a4.052 4.052 0 0 1-.504-1.167c-.05-.437-.382-1.205.393-1.233.581-.017.653.702.703 1.228z" fill="#5D4835"/><path fill="#423326" d="M107.704 90.358l.63.586-1.537 1.172-.642-.552z"/><path d="M42.436 99.173l.598.624c-.37.553-.67 1.704-1.422 1.073-.664-.553.32-1.21.824-1.697z" fill="#564331"/><path d="M14.819 144.025c.182-1.106-.454-2.339.553-3.318-.31 1.095.498 2.362-.553 3.318z" fill="#504235"/><path d="M9.363 188.342c0-1.106-.42-2.312.393-3.351.033 1.139.287 2.294-.393 3.35z" fill="#4E4C4C"/><path d="M163.62 173.361c1.018.791.493 1.886.553 2.865-.647-.863-.459-1.891-.553-2.865z" fill="#3E3329"/><path d="M63.591 193.755l-.553.553c-.183-.553-.371-1.106-.554-1.659.183-.21.371-.42.554-.635.498.497.475 1.133.553 1.741z" fill="#4E3C2D"/><path d="M99.974 217.694l.586-.625c.426.056 1.107.116.891.636-.348.813-.98.376-1.477-.01z" fill="#745B42"/><path d="M71.3 61.077c.265.553 1.593-1.266 1.25.553-.377-.248-1.295.653-1.25-.553z" fill="#917152"/><path d="M113.885 243.07c1.998.078 2.982 1.698 4.095 2.92 3.42 3.75 6.994 7.339 10.646 10.856 3.436 3.318 3.42 3.318 3.874 8.687a11.621 11.621 0 0 1-6.845-4.291 207.315 207.315 0 0 0-18.084-19.758c-.89-.857-1.98-2.898-3.231-1.62-1.66 1.658.642 2.648 1.66 3.594 6.717 6.083 12.837 12.69 18.814 19.482.747.851.437 1.188-.327 1.659-1.184.707-2.213 2.289-3.696.409-1.987-2.522-3.79-5.237-6.054-7.488-4.266-4.247-7.348-9.522-11.925-13.465a1.476 1.476 0 0 1-.509-1.46c.388-3.069.797-6.138 1.25-9.605 3.25 2.831 5.346 6.188 8.063 8.975 1.942.83 2.496 2.991 3.979 4.014-.321-.973-2.042-1.354-1.71-2.908z" fill="#B18964"/><path d="M116.513 270.316c-2.086 1.073-3.06-.116-4.034-1.21-3.054-3.44-5.882-7.112-9.573-9.927-.647-.492-1.388-2.03-2.44-.658-.963 1.25.183 2.052 1.107 2.643 3.78 2.434 5.777 6.376 8.41 9.783 1.312 1.697-.375 2.46-1.239 3.379-.951 1.017-1.621.193-2.213-.553-2.186-2.843-4.692-5.53-6.474-8.588-2.086-3.622-1.223-7.742-.399-11.58.3-1.399 1.483-.16 2.098.376a65.718 65.718 0 0 1 10.784 12.536c1.013 1.477 1.904 3.08 3.973 3.8z" fill="#B08864"/><path d="M101.816 246.079c5.722 6.83 11.377 13.576 17.752 19.675.758.725.946 1.41.1 2.34-.997 1.105-1.721.63-2.557-.084-2.684-2.294-4.598-5.242-6.756-7.98-2.618-3.317-5.224-6.674-8.638-9.228-2.208-1.648-.144-3.064.1-4.723z" fill="#AF8864"/><path d="M167.056 225.314c-.93 5.608-1.41 11.32-3.956 16.54-1.6-1.47-.62-3.24-.553-4.905.79-4.485 1.715-8.925 4.277-13.271l.232 1.636z" fill="#AC8662"/><path d="M145.94 266.235c.061 1.106-.675 1.864-1.106 2.765-.282.553-.891.868-1.312.31-2.213-2.925-5.212-2.51-8.239-2.129-.133 0-.293-.183-1.068-.713.753-.504 1.66-.791 1.992-1.388 1.383-2.489 2.474-2.987 4.648-.493 1.018 1.167 3.381 1.173 5.135 1.704l-.05-.056z" fill="#AD8662"/><path d="M113.885 243.07c1.007 1.488 2.529 2.616 2.95 4.568a21.77 21.77 0 0 1-5.219-5.684c.836-.227.05-1.206.73-1.554 1.09.564 1.406 1.565 1.539 2.67z" fill="#4E3C2C"/><path d="M159.116 253.384c1.106-2.45.664-5.043.675-7.587l1.107-1.106c.32 2.765.697 5.486-.554 8.118-.254.52-.337 1.399-1.228.575z" fill="#43372D"/><path d="M119.258 271.793c-.349 2.212-1.455 3.87-2.501 5.491-.299.47-.847.79-1.384.326-.536-.464-.077-.862.2-1.167 1.261-1.399.957-3.992 3.685-4.65z" fill="#A17D5C"/><path d="M135.017 251.332c.797.553.128 1.83 1.107 2.312-.714 2.212.587 4.606-1.107 6.807v-9.119z" fill="#967555"/><path d="M162.524 236.95c.449 1.603-.713 3.395.554 4.904.071.467-.148.93-.554 1.173-.946-2.019-.78-4.048 0-6.078z" fill="#4C433A"/><path d="M171.417 204.329v1.133a2.723 2.723 0 0 1-.692-.398c-.387-.42-1.345-.83-.736-1.454.725-.725.83.674 1.428.719z" fill="#9E7B5A"/><path d="M146.007 262.326c-.72.403-.52 1.133-.636 1.753a1.824 1.824 0 0 1-.344-2.256c.283-.437.753.094.98.503z" fill="#84674B"/><path d="M103.952 273.391c.404.448 1.14.979.498 1.51-.387.326-.863-.404-1.106-.907.188-.221.254-.553.608-.603z" fill="#735A41"/><path d="M103.952 273.391l-.597.603c-.216-.553-.803-1.023-.382-1.731.609.138.697.719.98 1.128z" fill="#8C6D50"/><path d="M146.339 122.763c-.797-.227-1.544-.553-1.738-1.388-.1-.442.443-.553.775-.448.946.205 1.34.785.963 1.836z" fill="#987757"/><path d="M144.27 114.756l.033-.553c1.106.199 2.18.52 2.766 1.659-.985-.238-2.014-.36-2.8-1.106z" fill="#7A5F45"/><path d="M154.55 79.497c.1.304.172.404.144.465-.603 1.393-1.543 2.455-3.131 2.571a.996.996 0 0 1-.87-1.183c.836-1.526 2.463-1.443 3.858-1.853z" fill="#A17D5C"/><path d="M135.897 69.322l.648.587c-.465.254-.963 1.017-1.422.171-.25-.453.365-.647.774-.758z" fill="#9E7B5A"/><path d="M23.169 220.46c0 .63.177 1.282-.255 1.857-2.767-2.416-2.767-3.185-.293-5.8 1.439 1.138.675 2.582.548 3.942z" fill="#A98360"/><path d="M19.821 235.821c-.913-1.106-1.433-2.527-2.7-3.318.265-.719-1.3-1.498-.133-2.03.824-.37 1.012.764 1.372 1.333.708 1.106 1.4 2.268 2.097 3.401.177.58-.105.725-.636.614z" fill="#A37E5C"/><path d="M19.655 203.162c1.55.127 2.734-.293 2.866 1.255.045.503.172 1.399-.47 1.35-1.262-.095-1.345-1.477-2.396-2.605z" fill="#997757"/><path d="M23.169 220.46c-.316-1.3.448-2.766-.554-3.944.238-.514.709-1.52.963-.276a6.018 6.018 0 0 1-.41 4.22z" fill="#9E7B59"/><path fill="#86684C" d="M19.821 235.821l.653-.636 1.107 2.212-.631.083z"/><path d="M77.248 214.791c-.847-.99-.294-2.162-.426-3.246 1.062.962.415 2.146.426 3.246z" fill="#443427"/><path d="M46.31 259.749c.609 1.227 1.018 2.61 1.86 3.644 1.576 1.919 1.864 3.87.923 6.083a35.798 35.798 0 0 0-3.198 7.957 2.004 2.004 0 0 1-1.732-.072c-1.195-.918-3.22-.884-3.398-2.975-.21-2.494.271-4.755 2.214-6.525 1.223-1.133 4.321-2.256-.05-3.318-.194-.05-.25-.641-.37-.979.503-1.133-.172-2.61 1.106-3.539.852-.625 1.654-1.117 2.645-.276z" fill="#B08964"/><path d="M49.049 278.567l-1.577.896-1.699.15c-.52-.111-1.156-.178-1.295-.764-.1-.426.437-.404.742-.503a6.999 6.999 0 0 1 3.32-.061l.509.282z" fill="#AD8662"/><path d="M48.55 278.285l-3.32.06-1.056-.967 1.732.072c.697.84 1.942-.011 2.645.835z" fill="#4E4D4C"/><path d="M41.972 261.85c-.554 2.4-.875 4.817-2.247 6.995-.841 1.344-.592 3.009-.293 4.58.197.797.231 1.627.1 2.438-.272 1.161-1.279 1.482-2.38 1.36-1.19-.133-1.107-.956-.968-1.847.553-4.54 1.848-8.953 2.119-13.57.094-1.631 1.466-3.351 2.623-4.728 1.732-2.057 3.502-1.394 4.327 1.432-.935 1.266-2.324 2.09-3.281 3.34z" fill="#AF8863"/><path d="M37.733 258.36c.144-1.957.277-3.715.41-5.529 2.738 2.096 2.71 2.726-.41 5.53z" fill="#A17D5B"/><path d="M41.972 261.85c.22-1.968 1.804-2.604 3.281-3.318.354.41.708.824 1.057 1.239-3.021-.465-2.878 2.212-3.768 3.827-.122-.62.066-1.328-.57-1.748z" fill="#4A3A2A"/><path d="M60.642 186.146c-.598.437-.393 1.106-.515 1.692-.592-.658-.454-1.498-.553-2.283 0-.587-.88-1.504.553-1.593l.515 2.184z" fill="#896A4E"/><path d="M60.133 183.962c-.642.37-.427 1.045-.554 1.593-.653-.63-.437-1.45-.454-2.212.46-.011.875.077 1.008.619z" fill="#634D38"/><path d="M163.238 50.62a6.591 6.591 0 0 1-3.585 5.785c-1.218.69-2.302.74-2.369-1.2-.088-2.505.664-4.657 2.59-6.277.586-.503 1.383-1.04 2.252-.62.869.421 1.14 1.334 1.112 2.312z" fill="#AE8763"/><path d="M321.314 234.693c-6.58.138-6.58.138-6.58-6.481 0-7.25-.038-14.5 0-21.749 0-3.036-.072-6.044-.93-8.98-.553-1.82-.193-2.765 1.982-2.594 1.826.15 3.668.05 5.506.06 1.034 1.035.885 2.368.896 3.645.028 4.424 0 8.848 0 13.244 0 3.76 1.228 4.69 5.18 4.076 1.787-2.66 2.932-5.64 4.06-8.594.925-2.422 2.297-3.484 4.887-3.097 1.275.117 2.556.15 3.835.1.769 1.045.038 1.924-.354 2.81-1.533 3.439-2.989 6.911-4.62 10.307a4.316 4.316 0 0 0 0 4.164c1.66 3.368 3.17 6.83 4.62 10.302.365.88 1.156 1.764.304 2.793-5.29 1.006-8.776-.642-10.12-6.266a11.914 11.914 0 0 0-2.613-5.303c-4.083-.647-5.09.243-5.257 4.159-.06 2.477.83 5.098-.796 7.404zm64.846-29.695c3.598-1.217 7.305-.692 10.98-.658 2.157 2.129 2.97 4.86 3.048 7.741.177 6.603.078 13.206.044 19.814 0 1.017-.105 2.024-.857 2.82-6.552.083-6.552.083-6.552-6.304 0-5.06-.066-10.12.033-15.18.039-1.78-.47-2.532-2.318-2.35-1.461.144-2.944.078-4.427.111-2.723.785-3.143 2.765-3.066 5.287.144 4.932.061 9.87 0 14.809 0 1.266.111 2.588-.907 3.616-6.58.133-6.447.127-6.613-6.498-.182-7.398.902-14.87-1.018-22.196-.354-1.35.31-1.809 1.616-1.764 2.02.077 4.04.06 6.087.083 1.062 1.77 2.645.409 3.95.669zm-91.33 23.009l13.242.111c1.107 2.455.315 4.573-1.145 6.58-5.988 0-11.975-.027-17.962.067-1.494 0-2.28-.387-2.878-1.836-1.167-2.837-2.003-5.646-1.831-8.787.194-3.684.194-7.376 0-11.06-.144-2.936 1.328-5.292 2.213-7.869.426-1.216 1.428-.967 2.308-.967 6.446 0 12.893.027 19.367.044.963 2.46.387 4.623-1.262 6.58l-12.04.1c-2.812.686-3.32 2.654-3.105 5.215a39.375 39.375 0 0 1 0 6.9c-.282 2.6.537 4.248 3.093 4.922zm136.75 3.694c-.958-3.87-.897-7.852-.886-11.817.026-7.004.026-14.009 0-21.013 0-1.366.155-2.793-.885-3.938-1.937 0-3.873.056-5.805-.044-1.627-.077-2.13.426-1.704 2.08.675 2.576 1.24 5.197.89 7.901-2.002 1.388-3.673-.553-5.533-.553-1.195 0-2.39-.071-3.58-.071-5.882 0-5.898 0-7.702 5.607a8.251 8.251 0 0 0-.316 2.422v14.328c-.033 2.892 1.151 5.53 2.667 7.664.936 1.322 3.464.332 5.28.443 1.183.071 2.384-.034 3.58-.056 1.897-.177 3.59-1.51 5.61-1.012.144 1.173 1.019 1.106 1.854 1.106l6.33-.072c.478-.92.55-1.998.2-2.975zm-10.348-3.594c-1.55-.116-3.11-.077-4.665-.105-.171-.21-.437-.382-.47-.653a59.413 59.413 0 0 1 0-15.699c.039-.27.293-.453.46-.67 6.695-.336 6.695-.336 6.695 6.322 0 2.925-.072 5.856.027 8.787.034 1.564-.52 2.145-2.047 2.023v-.005zm-173.248-16.695c-.094-2.66-.714-5.259-2.966-7.095-3.508.045-7.055-.553-10.514.553-3.657.244-3.563.244-3.702-3.345-.083-2.212.692-4.546-.758-6.603-1.937 0-3.873.056-5.804-.044-1.66-.083-2.175.453-1.66 2.085.995 3.318.973 6.707.951 10.12-.044 7.094 0 14.183 0 21.278 0 6.426 0 6.426 6.54 6.326 1.274-2.001 3.033-.497 4.566-.635 3.398 1.155 6.9.52 10.359.63 2.136-1.891 2.927-4.424 3.015-7.111.15-5.37.15-10.773-.027-16.159zm-9.335 16.712c-1.55-.15-3.121-.089-4.682-.117-.171-.21-.437-.381-.475-.658-.7-5.208-.7-10.486 0-15.693.038-.271.293-.454.453-.67 7.039-.364 7.039-.364 7.039 6.587 0 2.764-.1 5.53.033 8.261.1 1.853-.586 2.455-2.368 2.29zm117.05-.117a3.21 3.21 0 0 0-1.218-.613c-1.106-.238-1.792-.797-1.776-2.046.017-1.25.742-1.704 1.82-2.03a13.205 13.205 0 0 1 3.503-.503c2.911-.089 5.833.315 8.727-.232 4.255-3.932 3.834-14.743-.116-18.205l-17.154-.055c-.913 0-1.782-.116-2.214 1.106-1.007 2.765-2.374 5.32-2.174 8.439a81.689 81.689 0 0 1 0 10.213c-.194 3.24.653 6.144 1.925 9.042.515 1.188 1.107 1.658 2.435 1.658 5.71-.088 11.421-.077 17.154-.1 1.322-2.006 2.009-4.124 1.15-6.513l-12.062-.16zm0-16.965c.73-.028 1.46-.083 2.213-.083 4.859-.033 4.859-.028 4.316 4.977-1.106.553-2.313.249-3.47.26-4.022.022-4.88-1.455-3.06-5.154zm-77.807 1.023c-.083-2.865-.835-5.624-3.098-7.692-4.881 0-9.762-.067-14.637-.05-5.494 0-3.873-.498-5.13 4.252-.071.266-.027.553-.11.819-.387 1.233.083 1.61 1.317 1.581 2.95-.066 5.893 0 8.854 0 6.087 0 6.015 0 5.472 6.045-.121 1.41-.62 1.487-1.687 1.05-1.362-.553-2.712-1.156-4.106-1.609-6.02-1.974-9.462-.332-11.111 5.497a14.055 14.055 0 0 0 2.18 12.082c1.35 1.92 4.482.415 6.795.697.738.037 1.478.019 2.213-.055 1.898-.177 3.592-1.51 5.611-1.012.133 1.106.969 1.106 1.799 1.106h4.847c.753-.796.852-1.803.858-2.82.016-6.675.121-13.283-.067-19.891zM266.028 228.1c-.724 0-1.455-.055-2.185-.083-.985-1.045-.897-2.311-.697-3.577.16-1.007.702-1.66 1.831-1.57 1.787.137 3.602-.338 5.368.27.542 4.977.542 4.983-4.317 4.95v.01z" fill="#FFF"/><path d="M431.347 234.66a52.816 52.816 0 0 1-1.51-12.487c.127-9.074 0-18.154 0-27.234 3.873-.044 3.873-.044 3.873 3.788 0 8.107.039 16.213 0 24.331a36.27 36.27 0 0 0 .67 7.924c.83 3.833.835 3.833-3.033 3.678zm-31.972.05c0-7.698.066-15.396.06-23.088 0-2.654-1.781-4.772-2.296-7.282 3.912-.056 6.087 2.543 6.12 7.614.067 6.332 0 12.664 0 18.995.017 3.805.017 3.805-3.884 3.76z" fill="#EAEAE9"/><path d="M416.562 210.986v17.021c-3.874.194-3.874.194-3.874-3.572v-9.849c-.005-3.788-.005-3.788 3.874-3.6z" fill="#EAEAEA"/><path d="M233.956 210.986v17.021c-3.845.2-3.845.2-3.845-3.677v-9.633c.01-3.899.01-3.899 3.845-3.71z" fill="#EBEAE8"/><path d="M355.699 211.042c-.044 4.872-.044 4.872 4.87 4.872h1.632c-3.116.973-6.336.608-9.407.26-1.948-.216-.659-2.45-.93-3.75-.205-.984.327-1.537 1.395-1.476.796.055 1.62.066 2.44.094zm-85.354 12.088h-1.633c-4.914 0-4.914 0-4.87 4.872-3.961.199-3.845.193-3.934-3.036-.05-1.864.61-2.477 2.363-2.295 2.684.288 5.429-.52 8.074.46z" fill="#EAEAEA"/><path d="M316.24 273.463c-.554 0-1.107.039-1.622.039-4.88 0-4.88 0-4.853 4.822-4.626.143-3.746.707-3.873-3.462-.033-1.029.06-1.82 1.416-1.725 2.96.204 5.971-.437 8.931.326zm-66.795-12.155v17.016c-3.802.21-3.802.21-3.802-3.578v-10.13c.011-3.606.011-3.606 3.802-3.308z" fill="#D3D3D3"/></g></svg>